<svg id="Capa_1" data-name="Capa 1" xmlns="http://www.w3.org/2000/svg" xmlns:xlink="http://www.w3.org/1999/xlink" viewBox="0 0 100 94.89"><defs><style>.cls-1{fill:none;}.cls-2{fill:url(#Degradado_sin_nombre);}.cls-3{clip-path:url(#clip-path);}.cls-4{fill:url(#Degradado_sin_nombre_417);}.cls-5{fill:url(#Degradado_sin_nombre_417-2);}.cls-6{fill:url(#Degradado_sin_nombre_417-3);}.cls-7{fill:url(#Degradado_sin_nombre_417-4);}.cls-8{fill:url(#Degradado_sin_nombre_417-5);}.cls-9{fill:url(#Degradado_sin_nombre_417-6);}.cls-10{fill:url(#Degradado_sin_nombre_417-7);}.cls-11{fill:url(#Degradado_sin_nombre_417-8);}.cls-12{fill:url(#Degradado_sin_nombre_417-9);}.cls-13{fill:url(#Degradado_sin_nombre_417-10);}.cls-14{fill:url(#Degradado_sin_nombre_417-11);}.cls-15{fill:url(#Degradado_sin_nombre_417-12);}.cls-16{fill:url(#Degradado_sin_nombre_417-13);}.cls-17{fill:url(#Degradado_sin_nombre_417-14);}.cls-18{fill:url(#Degradado_sin_nombre_417-15);}.cls-19{fill:url(#Degradado_sin_nombre_417-16);}.cls-20{fill:url(#Degradado_sin_nombre_417-17);}.cls-21{fill:url(#Degradado_sin_nombre_417-18);}.cls-22{fill:url(#Degradado_sin_nombre_417-19);}.cls-23{fill:url(#Degradado_sin_nombre_417-20);}.cls-24{fill:url(#Degradado_sin_nombre_417-21);}.cls-25{fill:url(#Degradado_sin_nombre_417-22);}.cls-26{fill:url(#Degradado_sin_nombre_417-23);}.cls-27{fill:url(#Degradado_sin_nombre_417-24);}.cls-28{fill:url(#Degradado_sin_nombre_417-25);}.cls-29{fill:url(#Degradado_sin_nombre_417-26);}.cls-30{fill:url(#Degradado_sin_nombre_417-27);}.cls-31{fill:url(#Degradado_sin_nombre_417-28);}.cls-32{fill:url(#Degradado_sin_nombre_417-29);}.cls-33{fill:url(#Degradado_sin_nombre_417-30);}.cls-34{fill:url(#Degradado_sin_nombre_417-31);}.cls-35{fill:url(#Degradado_sin_nombre_417-32);}.cls-36{fill:url(#Degradado_sin_nombre_417-33);}.cls-37{fill:url(#Degradado_sin_nombre_417-34);}.cls-38{fill:url(#Degradado_sin_nombre_417-35);}.cls-39{fill:url(#Degradado_sin_nombre_417-36);}.cls-40{fill:url(#Degradado_sin_nombre_417-37);}.cls-41{fill:url(#Degradado_sin_nombre_417-38);}.cls-42{fill:url(#Degradado_sin_nombre_417-39);}.cls-43{fill:url(#Degradado_sin_nombre_417-40);}.cls-44{fill:url(#Degradado_sin_nombre_417-41);}.cls-45{fill:url(#Degradado_sin_nombre_417-42);}.cls-46{fill:url(#Degradado_sin_nombre_417-43);}.cls-47{fill:url(#Degradado_sin_nombre_417-44);}.cls-48{fill:url(#Degradado_sin_nombre_417-45);}.cls-49{fill:url(#Degradado_sin_nombre_417-46);}.cls-50{fill:url(#Degradado_sin_nombre_417-47);}.cls-51{fill:url(#Degradado_sin_nombre_417-48);}.cls-52{fill:url(#Degradado_sin_nombre_417-49);}.cls-53{fill:url(#Degradado_sin_nombre_417-50);}.cls-54{fill:url(#Degradado_sin_nombre_417-51);}.cls-55{fill:url(#Degradado_sin_nombre_417-52);}.cls-56{fill:url(#Degradado_sin_nombre_417-53);}.cls-57{fill:url(#Degradado_sin_nombre_417-54);}.cls-58{fill:url(#Degradado_sin_nombre_417-55);}.cls-59{fill:url(#Degradado_sin_nombre_417-56);}.cls-60{fill:url(#Degradado_sin_nombre_417-57);}.cls-61{fill:url(#Degradado_sin_nombre_417-58);}.cls-62{fill:url(#Degradado_sin_nombre_417-59);}.cls-63{fill:url(#Degradado_sin_nombre_417-60);}.cls-64{fill:url(#Degradado_sin_nombre_417-61);}.cls-65{fill:url(#Degradado_sin_nombre_417-62);}.cls-66{fill:url(#Degradado_sin_nombre_417-63);}.cls-67{fill:url(#Degradado_sin_nombre_417-64);}.cls-68{fill:url(#Degradado_sin_nombre_417-65);}.cls-69{fill:url(#Degradado_sin_nombre_417-66);}.cls-70{fill:url(#Degradado_sin_nombre_417-67);}.cls-71{fill:url(#Degradado_sin_nombre_417-68);}.cls-72{fill:url(#Degradado_sin_nombre_417-69);}.cls-73{fill:url(#Degradado_sin_nombre_417-70);}.cls-74{fill:url(#Degradado_sin_nombre_417-71);}.cls-75{fill:url(#Degradado_sin_nombre_417-72);}.cls-76{fill:url(#Degradado_sin_nombre_417-73);}.cls-77{fill:url(#Degradado_sin_nombre_417-74);}.cls-78{fill:url(#Degradado_sin_nombre_417-75);}.cls-79{fill:url(#Degradado_sin_nombre_417-76);}.cls-80{fill:url(#Degradado_sin_nombre_417-77);}.cls-81{fill:url(#Degradado_sin_nombre_417-78);}.cls-82{fill:url(#Degradado_sin_nombre_417-79);}.cls-83{fill:url(#Degradado_sin_nombre_417-80);}.cls-84{fill:url(#Degradado_sin_nombre_417-81);}.cls-85{fill:url(#Degradado_sin_nombre_417-82);}.cls-86{fill:url(#Degradado_sin_nombre_417-83);}.cls-87{fill:url(#Degradado_sin_nombre_417-84);}.cls-88{fill:url(#Degradado_sin_nombre_417-85);}.cls-89{fill:url(#Degradado_sin_nombre_417-86);}.cls-90{fill:url(#Degradado_sin_nombre_417-87);}.cls-91{fill:url(#Degradado_sin_nombre_417-88);}.cls-92{fill:url(#Degradado_sin_nombre_417-89);}.cls-93{fill:url(#Degradado_sin_nombre_417-90);}.cls-94{fill:url(#Degradado_sin_nombre_417-91);}.cls-95{fill:url(#Degradado_sin_nombre_417-92);}.cls-96{fill:url(#Degradado_sin_nombre_417-93);}.cls-97{fill:url(#Degradado_sin_nombre_417-94);}.cls-98{fill:url(#Degradado_sin_nombre_417-95);}.cls-99{fill:url(#Degradado_sin_nombre_417-96);}.cls-100{fill:url(#Degradado_sin_nombre_417-97);}.cls-101{fill:url(#Degradado_sin_nombre_417-98);}.cls-102{fill:url(#Degradado_sin_nombre_417-99);}.cls-103{fill:url(#Degradado_sin_nombre_417-100);}.cls-104{fill:url(#Degradado_sin_nombre_417-101);}.cls-105{fill:url(#Degradado_sin_nombre_417-102);}.cls-106{fill:url(#Degradado_sin_nombre_417-103);}.cls-107{fill:url(#Degradado_sin_nombre_417-104);}.cls-108{fill:url(#Degradado_sin_nombre_417-105);}.cls-109{fill:url(#Degradado_sin_nombre_417-106);}.cls-110{fill:url(#Degradado_sin_nombre_417-107);}.cls-111{fill:url(#Degradado_sin_nombre_417-108);}.cls-112{fill:url(#Degradado_sin_nombre_417-109);}.cls-113{fill:url(#Degradado_sin_nombre_417-110);}.cls-114{fill:url(#Degradado_sin_nombre_417-111);}.cls-115{fill:url(#Degradado_sin_nombre_417-112);}.cls-116{fill:url(#Degradado_sin_nombre_417-113);}.cls-117{fill:url(#Degradado_sin_nombre_417-114);}.cls-118{fill:url(#Degradado_sin_nombre_417-115);}.cls-119{fill:url(#Degradado_sin_nombre_417-116);}.cls-120{fill:url(#Degradado_sin_nombre_417-117);}.cls-121{fill:url(#Degradado_sin_nombre_417-118);}.cls-122{fill:url(#Degradado_sin_nombre_417-119);}.cls-123{fill:url(#Degradado_sin_nombre_417-120);}.cls-124{fill:url(#Degradado_sin_nombre_417-121);}.cls-125{fill:url(#Degradado_sin_nombre_417-122);}.cls-126{fill:url(#Degradado_sin_nombre_417-123);}.cls-127{fill:url(#Degradado_sin_nombre_417-124);}.cls-128{fill:url(#Degradado_sin_nombre_417-125);}.cls-129{fill:url(#Degradado_sin_nombre_417-126);}.cls-130{fill:url(#Degradado_sin_nombre_417-127);}.cls-131{fill:url(#Degradado_sin_nombre_417-128);}.cls-132{fill:url(#Degradado_sin_nombre_417-129);}.cls-133{fill:url(#Degradado_sin_nombre_417-130);}.cls-134{fill:url(#Degradado_sin_nombre_417-131);}.cls-135{fill:url(#Degradado_sin_nombre_417-132);}.cls-136{fill:url(#Degradado_sin_nombre_417-133);}.cls-137{fill:url(#Degradado_sin_nombre_417-134);}.cls-138{fill:url(#Degradado_sin_nombre_417-135);}.cls-139{fill:url(#Degradado_sin_nombre_417-136);}.cls-140{fill:url(#Degradado_sin_nombre_417-137);}.cls-141{fill:url(#Degradado_sin_nombre_417-138);}.cls-142{fill:url(#Degradado_sin_nombre_417-139);}.cls-143{fill:url(#Degradado_sin_nombre_417-140);}.cls-144{fill:url(#Degradado_sin_nombre_417-141);}.cls-145{fill:url(#Degradado_sin_nombre_417-142);}.cls-146{fill:url(#Degradado_sin_nombre_417-143);}.cls-147{fill:url(#Degradado_sin_nombre_417-144);}.cls-148{fill:url(#Degradado_sin_nombre_417-145);}.cls-149{fill:url(#Degradado_sin_nombre_417-146);}.cls-150{fill:url(#Degradado_sin_nombre_417-147);}.cls-151{fill:url(#Degradado_sin_nombre_417-148);}.cls-152{fill:url(#Degradado_sin_nombre_417-149);}.cls-153{fill:url(#Degradado_sin_nombre_417-150);}.cls-154{fill:url(#Degradado_sin_nombre_417-151);}.cls-155{fill:url(#Degradado_sin_nombre_417-152);}.cls-156{fill:url(#Degradado_sin_nombre_417-153);}.cls-157{fill:url(#Degradado_sin_nombre_417-154);}.cls-158{fill:url(#Degradado_sin_nombre_417-155);}.cls-159{fill:url(#Degradado_sin_nombre_417-156);}.cls-160{fill:url(#Degradado_sin_nombre_417-157);}.cls-161{fill:url(#Degradado_sin_nombre_417-158);}.cls-162{fill:url(#Degradado_sin_nombre_417-159);}.cls-163{fill:url(#Degradado_sin_nombre_417-160);}.cls-164{fill:url(#Degradado_sin_nombre_417-161);}.cls-165{fill:url(#Degradado_sin_nombre_417-162);}.cls-166{fill:url(#Degradado_sin_nombre_417-163);}.cls-167{fill:url(#Degradado_sin_nombre_417-164);}.cls-168{fill:url(#Degradado_sin_nombre_417-165);}.cls-169{fill:url(#Degradado_sin_nombre_417-166);}.cls-170{fill:url(#Degradado_sin_nombre_417-167);}.cls-171{fill:url(#Degradado_sin_nombre_417-168);}.cls-172{fill:url(#Degradado_sin_nombre_417-169);}.cls-173{fill:url(#Degradado_sin_nombre_417-170);}.cls-174{fill:url(#Degradado_sin_nombre_417-171);}.cls-175{fill:url(#Degradado_sin_nombre_417-172);}.cls-176{fill:url(#Degradado_sin_nombre_417-173);}.cls-177{fill:url(#Degradado_sin_nombre_417-174);}.cls-178{fill:url(#Degradado_sin_nombre_417-175);}.cls-179{fill:url(#Degradado_sin_nombre_417-176);}.cls-180{fill:url(#Degradado_sin_nombre_417-177);}.cls-181{fill:url(#Degradado_sin_nombre_417-178);}.cls-182{fill:url(#Degradado_sin_nombre_417-179);}.cls-183{fill:url(#Degradado_sin_nombre_417-180);}.cls-184{fill:url(#Degradado_sin_nombre_417-181);}.cls-185{fill:url(#Degradado_sin_nombre_417-182);}.cls-186{fill:url(#Degradado_sin_nombre_417-183);}.cls-187{fill:url(#Degradado_sin_nombre_417-184);}.cls-188{fill:url(#Degradado_sin_nombre_417-185);}.cls-189{fill:url(#Degradado_sin_nombre_417-186);}.cls-190{fill:url(#Degradado_sin_nombre_417-187);}.cls-191{fill:url(#Degradado_sin_nombre_417-188);}.cls-192{fill:url(#Degradado_sin_nombre_417-189);}.cls-193{fill:url(#Degradado_sin_nombre_417-190);}.cls-194{fill:url(#Degradado_sin_nombre_417-191);}.cls-195{fill:url(#Degradado_sin_nombre_417-192);}.cls-196{fill:url(#Degradado_sin_nombre_417-193);}.cls-197{fill:url(#Degradado_sin_nombre_417-194);}.cls-198{fill:url(#Degradado_sin_nombre_417-195);}.cls-199{fill:url(#Degradado_sin_nombre_417-196);}.cls-200{fill:url(#Degradado_sin_nombre_417-197);}.cls-201{fill:url(#Degradado_sin_nombre_417-198);}.cls-202{fill:url(#Degradado_sin_nombre_417-199);}.cls-203{fill:url(#Degradado_sin_nombre_417-200);}.cls-204{fill:url(#Degradado_sin_nombre_417-201);}.cls-205{fill:url(#Degradado_sin_nombre_417-202);}.cls-206{fill:url(#Degradado_sin_nombre_417-203);}.cls-207{fill:url(#Degradado_sin_nombre_417-204);}.cls-208{fill:url(#Degradado_sin_nombre_417-205);}.cls-209{fill:url(#Degradado_sin_nombre_417-206);}.cls-210{fill:url(#Degradado_sin_nombre_417-207);}.cls-211{fill:url(#Degradado_sin_nombre_417-208);}.cls-212{fill:url(#Degradado_sin_nombre_417-209);}.cls-213{fill:url(#Degradado_sin_nombre_417-210);}.cls-214{fill:url(#Degradado_sin_nombre_417-211);}.cls-215{fill:url(#Degradado_sin_nombre_417-212);}.cls-216{fill:url(#Degradado_sin_nombre_417-213);}.cls-217{fill:url(#Degradado_sin_nombre_417-214);}.cls-218{fill:url(#Degradado_sin_nombre_417-215);}.cls-219{fill:url(#Degradado_sin_nombre_417-216);}.cls-220{fill:url(#Degradado_sin_nombre_417-217);}.cls-221{fill:url(#Degradado_sin_nombre_417-218);}.cls-222{fill:url(#Degradado_sin_nombre_417-219);}.cls-223{fill:url(#Degradado_sin_nombre_417-220);}.cls-224{fill:url(#Degradado_sin_nombre_417-221);}.cls-225{fill:url(#Degradado_sin_nombre_417-222);}.cls-226{fill:url(#Degradado_sin_nombre_417-223);}.cls-227{fill:url(#Degradado_sin_nombre_417-224);}.cls-228{fill:url(#Degradado_sin_nombre_417-225);}.cls-229{fill:url(#Degradado_sin_nombre_417-226);}.cls-230{fill:url(#Degradado_sin_nombre_417-227);}.cls-231{fill:url(#Degradado_sin_nombre_417-228);}.cls-232{fill:url(#Degradado_sin_nombre_417-229);}.cls-233{fill:url(#Degradado_sin_nombre_417-230);}.cls-234{fill:url(#Degradado_sin_nombre_417-231);}.cls-235{fill:url(#Degradado_sin_nombre_417-232);}.cls-236{fill:url(#Degradado_sin_nombre_417-233);}.cls-237{fill:url(#Degradado_sin_nombre_417-234);}.cls-238{fill:url(#Degradado_sin_nombre_417-235);}.cls-239{fill:url(#Degradado_sin_nombre_417-236);}.cls-240{fill:url(#Degradado_sin_nombre_417-237);}.cls-241{fill:url(#Degradado_sin_nombre_417-238);}.cls-242{fill:url(#Degradado_sin_nombre_417-239);}.cls-243{fill:url(#Degradado_sin_nombre_417-240);}.cls-244{fill:url(#Degradado_sin_nombre_417-241);}.cls-245{fill:url(#Degradado_sin_nombre_417-242);}.cls-246{fill:url(#Degradado_sin_nombre_417-243);}.cls-247{fill:url(#Degradado_sin_nombre_417-244);}.cls-248{fill:url(#Degradado_sin_nombre_417-245);}.cls-249{fill:url(#Degradado_sin_nombre_417-246);}.cls-250{fill:url(#Degradado_sin_nombre_417-247);}.cls-251{fill:url(#Degradado_sin_nombre_417-248);}.cls-252{fill:url(#Degradado_sin_nombre_417-249);}.cls-253{fill:url(#Degradado_sin_nombre_417-250);}.cls-254{fill:url(#Degradado_sin_nombre_417-251);}.cls-255{fill:url(#Degradado_sin_nombre_417-252);}.cls-256{fill:url(#Degradado_sin_nombre_417-253);}.cls-257{fill:url(#Degradado_sin_nombre_417-254);}.cls-258{fill:url(#Degradado_sin_nombre_417-255);}.cls-259{fill:url(#Degradado_sin_nombre_417-256);}.cls-260{fill:url(#Degradado_sin_nombre_417-257);}.cls-261{fill:url(#Degradado_sin_nombre_417-258);}.cls-262{fill:url(#Degradado_sin_nombre_417-259);}.cls-263{fill:url(#Degradado_sin_nombre_417-260);}.cls-264{fill:url(#Degradado_sin_nombre_417-261);}.cls-265{fill:url(#Degradado_sin_nombre_417-262);}.cls-266{fill:url(#Degradado_sin_nombre_417-263);}.cls-267{fill:url(#Degradado_sin_nombre_417-264);}.cls-268{fill:url(#Degradado_sin_nombre_417-265);}.cls-269{fill:url(#Degradado_sin_nombre_417-266);}.cls-270{fill:url(#Degradado_sin_nombre_417-267);}.cls-271{fill:url(#Degradado_sin_nombre_417-268);}.cls-272{fill:url(#Degradado_sin_nombre_417-269);}.cls-273{fill:url(#Degradado_sin_nombre_417-270);}.cls-274{fill:url(#Degradado_sin_nombre_417-271);}.cls-275{fill:url(#Degradado_sin_nombre_417-272);}.cls-276{fill:url(#Degradado_sin_nombre_417-273);}.cls-277{fill:url(#Degradado_sin_nombre_417-274);}.cls-278{fill:url(#Degradado_sin_nombre_417-275);}.cls-279{fill:url(#Degradado_sin_nombre_417-276);}.cls-280{fill:url(#Degradado_sin_nombre_417-277);}.cls-281{fill:url(#Degradado_sin_nombre_417-278);}.cls-282{fill:url(#Degradado_sin_nombre_417-279);}.cls-283{fill:url(#Degradado_sin_nombre_417-280);}.cls-284{fill:url(#Degradado_sin_nombre_417-281);}.cls-285{fill:url(#Degradado_sin_nombre_417-282);}.cls-286{fill:url(#Degradado_sin_nombre_417-283);}.cls-287{fill:url(#Degradado_sin_nombre_417-284);}.cls-288{fill:url(#Degradado_sin_nombre_417-285);}.cls-289{fill:url(#Degradado_sin_nombre_417-286);}.cls-290{fill:url(#Degradado_sin_nombre_417-287);}.cls-291{fill:url(#Degradado_sin_nombre_417-288);}</style><linearGradient id="Degradado_sin_nombre" x1="0.48" y1="48.44" x2="92.14" y2="48.44" gradientTransform="matrix(1, 0, 0, -1, 0, 95.89)" gradientUnits="userSpaceOnUse"><stop offset="0" stop-color="#d29349"/><stop offset="0.15" stop-color="#c7873b"/><stop offset="0.44" stop-color="#d99e57"/><stop offset="0.68" stop-color="#e6ad6a"/><stop offset="0.79" stop-color="#e4aa66"/><stop offset="0.9" stop-color="#dda05a"/><stop offset="1" stop-color="#d39247"/></linearGradient><clipPath id="clip-path"><rect class="cls-1" width="100" height="94.89"/></clipPath><linearGradient id="Degradado_sin_nombre_417" x1="-0.01" y1="92.27" x2="-0.01" y2="99.5" gradientTransform="matrix(1, 0, 0, -1, 0, 95.89)" gradientUnits="userSpaceOnUse"><stop offset="0" stop-color="#deb677"/><stop offset="0.5" stop-color="#ce9a5c"/><stop offset="1" stop-color="#be8040"/></linearGradient><linearGradient id="Degradado_sin_nombre_417-2" x1="8.32" y1="92.27" x2="8.32" y2="99.5" xlink:href="#Degradado_sin_nombre_417"/><linearGradient id="Degradado_sin_nombre_417-3" x1="16.66" y1="92.27" x2="16.66" y2="99.5" xlink:href="#Degradado_sin_nombre_417"/><linearGradient id="Degradado_sin_nombre_417-4" x1="24.99" y1="92.27" x2="24.99" y2="99.5" xlink:href="#Degradado_sin_nombre_417"/><linearGradient id="Degradado_sin_nombre_417-5" x1="33.32" y1="92.27" x2="33.32" y2="99.5" xlink:href="#Degradado_sin_nombre_417"/><linearGradient id="Degradado_sin_nombre_417-6" x1="41.65" y1="92.27" x2="41.65" y2="99.5" xlink:href="#Degradado_sin_nombre_417"/><linearGradient id="Degradado_sin_nombre_417-7" x1="49.99" y1="92.27" x2="49.99" y2="99.5" xlink:href="#Degradado_sin_nombre_417"/><linearGradient id="Degradado_sin_nombre_417-8" x1="58.32" y1="92.27" x2="58.32" y2="99.5" xlink:href="#Degradado_sin_nombre_417"/><linearGradient id="Degradado_sin_nombre_417-9" x1="66.66" y1="92.27" x2="66.66" y2="99.5" xlink:href="#Degradado_sin_nombre_417"/><linearGradient id="Degradado_sin_nombre_417-10" x1="74.99" y1="92.27" x2="74.99" y2="99.5" xlink:href="#Degradado_sin_nombre_417"/><linearGradient id="Degradado_sin_nombre_417-11" x1="83.32" y1="92.27" x2="83.32" y2="99.5" xlink:href="#Degradado_sin_nombre_417"/><linearGradient id="Degradado_sin_nombre_417-12" x1="91.65" y1="92.27" x2="91.65" y2="99.5" xlink:href="#Degradado_sin_nombre_417"/><linearGradient id="Degradado_sin_nombre_417-13" x1="99.98" y1="92.27" x2="99.98" y2="99.5" xlink:href="#Degradado_sin_nombre_417"/><linearGradient id="Degradado_sin_nombre_417-14" x1="4.08" y1="87.99" x2="4.08" y2="95.22" xlink:href="#Degradado_sin_nombre_417"/><linearGradient id="Degradado_sin_nombre_417-15" x1="12.42" y1="87.99" x2="12.42" y2="95.22" xlink:href="#Degradado_sin_nombre_417"/><linearGradient id="Degradado_sin_nombre_417-16" x1="20.75" y1="87.99" x2="20.75" y2="95.22" xlink:href="#Degradado_sin_nombre_417"/><linearGradient id="Degradado_sin_nombre_417-17" x1="29.08" y1="87.99" x2="29.08" y2="95.22" xlink:href="#Degradado_sin_nombre_417"/><linearGradient id="Degradado_sin_nombre_417-18" x1="37.42" y1="87.99" x2="37.42" y2="95.22" xlink:href="#Degradado_sin_nombre_417"/><linearGradient id="Degradado_sin_nombre_417-19" x1="45.75" y1="87.99" x2="45.75" y2="95.22" xlink:href="#Degradado_sin_nombre_417"/><linearGradient id="Degradado_sin_nombre_417-20" x1="54.08" y1="87.99" x2="54.08" y2="95.22" xlink:href="#Degradado_sin_nombre_417"/><linearGradient id="Degradado_sin_nombre_417-21" x1="62.41" y1="87.99" x2="62.41" y2="95.22" xlink:href="#Degradado_sin_nombre_417"/><linearGradient id="Degradado_sin_nombre_417-22" x1="70.75" y1="87.99" x2="70.75" y2="95.22" xlink:href="#Degradado_sin_nombre_417"/><linearGradient id="Degradado_sin_nombre_417-23" x1="79.08" y1="87.99" x2="79.08" y2="95.22" xlink:href="#Degradado_sin_nombre_417"/><linearGradient id="Degradado_sin_nombre_417-24" x1="87.41" y1="87.99" x2="87.41" y2="95.22" xlink:href="#Degradado_sin_nombre_417"/><linearGradient id="Degradado_sin_nombre_417-25" x1="95.74" y1="87.99" x2="95.74" y2="95.22" xlink:href="#Degradado_sin_nombre_417"/><linearGradient id="Degradado_sin_nombre_417-26" x1="0" y1="83.64" x2="0" y2="90.87" xlink:href="#Degradado_sin_nombre_417"/><linearGradient id="Degradado_sin_nombre_417-27" x1="8.32" y1="83.64" x2="8.32" y2="90.87" xlink:href="#Degradado_sin_nombre_417"/><linearGradient id="Degradado_sin_nombre_417-28" x1="16.66" y1="83.64" x2="16.66" y2="90.87" xlink:href="#Degradado_sin_nombre_417"/><linearGradient id="Degradado_sin_nombre_417-29" x1="25" y1="83.64" x2="25" y2="90.87" xlink:href="#Degradado_sin_nombre_417"/><linearGradient id="Degradado_sin_nombre_417-30" x1="33.32" y1="83.64" x2="33.32" y2="90.87" xlink:href="#Degradado_sin_nombre_417"/><linearGradient id="Degradado_sin_nombre_417-31" x1="41.65" y1="83.64" x2="41.65" y2="90.87" xlink:href="#Degradado_sin_nombre_417"/><linearGradient id="Degradado_sin_nombre_417-32" x1="50" y1="83.64" x2="50" y2="90.87" xlink:href="#Degradado_sin_nombre_417"/><linearGradient id="Degradado_sin_nombre_417-33" x1="58.32" y1="83.64" x2="58.32" y2="90.87" xlink:href="#Degradado_sin_nombre_417"/><linearGradient id="Degradado_sin_nombre_417-34" x1="66.65" y1="83.64" x2="66.65" y2="90.87" xlink:href="#Degradado_sin_nombre_417"/><linearGradient id="Degradado_sin_nombre_417-35" x1="75" y1="83.64" x2="75" y2="90.87" xlink:href="#Degradado_sin_nombre_417"/><linearGradient id="Degradado_sin_nombre_417-36" x1="83.32" y1="83.64" x2="83.32" y2="90.87" xlink:href="#Degradado_sin_nombre_417"/><linearGradient id="Degradado_sin_nombre_417-37" x1="91.65" y1="83.64" x2="91.65" y2="90.87" xlink:href="#Degradado_sin_nombre_417"/><linearGradient id="Degradado_sin_nombre_417-38" x1="99.98" y1="83.64" x2="99.98" y2="90.87" xlink:href="#Degradado_sin_nombre_417"/><linearGradient id="Degradado_sin_nombre_417-39" x1="4.08" y1="79.36" x2="4.08" y2="86.59" xlink:href="#Degradado_sin_nombre_417"/><linearGradient id="Degradado_sin_nombre_417-40" x1="12.44" y1="79.36" x2="12.44" y2="86.59" xlink:href="#Degradado_sin_nombre_417"/><linearGradient id="Degradado_sin_nombre_417-41" x1="20.75" y1="79.36" x2="20.75" y2="86.59" xlink:href="#Degradado_sin_nombre_417"/><linearGradient id="Degradado_sin_nombre_417-42" x1="29.08" y1="79.36" x2="29.08" y2="86.59" xlink:href="#Degradado_sin_nombre_417"/><linearGradient id="Degradado_sin_nombre_417-43" x1="37.44" y1="79.36" x2="37.44" y2="86.59" xlink:href="#Degradado_sin_nombre_417"/><linearGradient id="Degradado_sin_nombre_417-44" x1="45.75" y1="79.36" x2="45.75" y2="86.59" xlink:href="#Degradado_sin_nombre_417"/><linearGradient id="Degradado_sin_nombre_417-45" x1="54.08" y1="79.36" x2="54.08" y2="86.59" xlink:href="#Degradado_sin_nombre_417"/><linearGradient id="Degradado_sin_nombre_417-46" x1="62.44" y1="79.36" x2="62.44" y2="86.59" xlink:href="#Degradado_sin_nombre_417"/><linearGradient id="Degradado_sin_nombre_417-47" x1="70.75" y1="79.36" x2="70.75" y2="86.59" xlink:href="#Degradado_sin_nombre_417"/><linearGradient id="Degradado_sin_nombre_417-48" x1="79.08" y1="79.36" x2="79.08" y2="86.59" xlink:href="#Degradado_sin_nombre_417"/><linearGradient id="Degradado_sin_nombre_417-49" x1="87.41" y1="79.36" x2="87.41" y2="86.59" xlink:href="#Degradado_sin_nombre_417"/><linearGradient id="Degradado_sin_nombre_417-50" x1="95.74" y1="79.36" x2="95.74" y2="86.59" xlink:href="#Degradado_sin_nombre_417"/><linearGradient id="Degradado_sin_nombre_417-51" x1="0" y1="75" x2="0" y2="82.23" xlink:href="#Degradado_sin_nombre_417"/><linearGradient id="Degradado_sin_nombre_417-52" x1="8.32" y1="75" x2="8.32" y2="82.23" xlink:href="#Degradado_sin_nombre_417"/><linearGradient id="Degradado_sin_nombre_417-53" x1="16.65" y1="75" x2="16.65" y2="82.23" xlink:href="#Degradado_sin_nombre_417"/><linearGradient id="Degradado_sin_nombre_417-54" x1="25" y1="75" x2="25" y2="82.23" xlink:href="#Degradado_sin_nombre_417"/><linearGradient id="Degradado_sin_nombre_417-55" x1="33.32" y1="75" x2="33.32" y2="82.23" xlink:href="#Degradado_sin_nombre_417"/><linearGradient id="Degradado_sin_nombre_417-56" x1="41.65" y1="75" x2="41.65" y2="82.23" xlink:href="#Degradado_sin_nombre_417"/><linearGradient id="Degradado_sin_nombre_417-57" x1="50" y1="75" x2="50" y2="82.23" xlink:href="#Degradado_sin_nombre_417"/><linearGradient id="Degradado_sin_nombre_417-58" x1="58.32" y1="75" x2="58.32" y2="82.23" xlink:href="#Degradado_sin_nombre_417"/><linearGradient id="Degradado_sin_nombre_417-59" x1="66.65" y1="75" x2="66.65" y2="82.23" xlink:href="#Degradado_sin_nombre_417"/><linearGradient id="Degradado_sin_nombre_417-60" x1="75" y1="75" x2="75" y2="82.23" xlink:href="#Degradado_sin_nombre_417"/><linearGradient id="Degradado_sin_nombre_417-61" x1="83.32" y1="75" x2="83.32" y2="82.23" xlink:href="#Degradado_sin_nombre_417"/><linearGradient id="Degradado_sin_nombre_417-62" x1="91.65" y1="75" x2="91.65" y2="82.23" xlink:href="#Degradado_sin_nombre_417"/><linearGradient id="Degradado_sin_nombre_417-63" x1="100.01" y1="75" x2="100.01" y2="82.23" xlink:href="#Degradado_sin_nombre_417"/><linearGradient id="Degradado_sin_nombre_417-64" x1="4.08" y1="70.73" x2="4.08" y2="77.96" xlink:href="#Degradado_sin_nombre_417"/><linearGradient id="Degradado_sin_nombre_417-65" x1="12.42" y1="70.73" x2="12.42" y2="77.96" xlink:href="#Degradado_sin_nombre_417"/><linearGradient id="Degradado_sin_nombre_417-66" x1="20.75" y1="70.73" x2="20.75" y2="77.96" xlink:href="#Degradado_sin_nombre_417"/><linearGradient id="Degradado_sin_nombre_417-67" x1="29.08" y1="70.73" x2="29.08" y2="77.96" xlink:href="#Degradado_sin_nombre_417"/><linearGradient id="Degradado_sin_nombre_417-68" x1="37.42" y1="70.73" x2="37.42" y2="77.96" xlink:href="#Degradado_sin_nombre_417"/><linearGradient id="Degradado_sin_nombre_417-69" x1="45.75" y1="70.73" x2="45.75" y2="77.96" xlink:href="#Degradado_sin_nombre_417"/><linearGradient id="Degradado_sin_nombre_417-70" x1="54.08" y1="70.73" x2="54.08" y2="77.96" xlink:href="#Degradado_sin_nombre_417"/><linearGradient id="Degradado_sin_nombre_417-71" x1="62.41" y1="70.73" x2="62.41" y2="77.96" xlink:href="#Degradado_sin_nombre_417"/><linearGradient id="Degradado_sin_nombre_417-72" x1="70.75" y1="70.73" x2="70.75" y2="77.96" xlink:href="#Degradado_sin_nombre_417"/><linearGradient id="Degradado_sin_nombre_417-73" x1="79.08" y1="70.73" x2="79.08" y2="77.96" xlink:href="#Degradado_sin_nombre_417"/><linearGradient id="Degradado_sin_nombre_417-74" x1="87.41" y1="70.73" x2="87.41" y2="77.96" xlink:href="#Degradado_sin_nombre_417"/><linearGradient id="Degradado_sin_nombre_417-75" x1="95.74" y1="70.73" x2="95.74" y2="77.96" xlink:href="#Degradado_sin_nombre_417"/><linearGradient id="Degradado_sin_nombre_417-76" x1="0" y1="66.37" x2="0" y2="73.6" xlink:href="#Degradado_sin_nombre_417"/><linearGradient id="Degradado_sin_nombre_417-77" x1="8.32" y1="66.37" x2="8.32" y2="73.6" xlink:href="#Degradado_sin_nombre_417"/><linearGradient id="Degradado_sin_nombre_417-78" x1="16.66" y1="66.37" x2="16.66" y2="73.6" xlink:href="#Degradado_sin_nombre_417"/><linearGradient id="Degradado_sin_nombre_417-79" x1="25" y1="66.37" x2="25" y2="73.6" xlink:href="#Degradado_sin_nombre_417"/><linearGradient id="Degradado_sin_nombre_417-80" x1="33.32" y1="66.37" x2="33.32" y2="73.6" xlink:href="#Degradado_sin_nombre_417"/><linearGradient id="Degradado_sin_nombre_417-81" x1="41.65" y1="66.37" x2="41.65" y2="73.6" xlink:href="#Degradado_sin_nombre_417"/><linearGradient id="Degradado_sin_nombre_417-82" x1="50" y1="66.37" x2="50" y2="73.6" xlink:href="#Degradado_sin_nombre_417"/><linearGradient id="Degradado_sin_nombre_417-83" x1="58.32" y1="66.37" x2="58.32" y2="73.6" xlink:href="#Degradado_sin_nombre_417"/><linearGradient id="Degradado_sin_nombre_417-84" x1="66.65" y1="66.37" x2="66.65" y2="73.6" xlink:href="#Degradado_sin_nombre_417"/><linearGradient id="Degradado_sin_nombre_417-85" x1="75" y1="66.37" x2="75" y2="73.6" xlink:href="#Degradado_sin_nombre_417"/><linearGradient id="Degradado_sin_nombre_417-86" x1="83.32" y1="66.37" x2="83.32" y2="73.6" xlink:href="#Degradado_sin_nombre_417"/><linearGradient id="Degradado_sin_nombre_417-87" x1="91.65" y1="66.37" x2="91.65" y2="73.6" xlink:href="#Degradado_sin_nombre_417"/><linearGradient id="Degradado_sin_nombre_417-88" x1="99.99" y1="66.37" x2="99.99" y2="73.6" xlink:href="#Degradado_sin_nombre_417"/><linearGradient id="Degradado_sin_nombre_417-89" x1="4.08" y1="62.09" x2="4.08" y2="69.32" xlink:href="#Degradado_sin_nombre_417"/><linearGradient id="Degradado_sin_nombre_417-90" x1="12.42" y1="62.09" x2="12.42" y2="69.32" xlink:href="#Degradado_sin_nombre_417"/><linearGradient id="Degradado_sin_nombre_417-91" x1="20.75" y1="62.09" x2="20.75" y2="69.32" xlink:href="#Degradado_sin_nombre_417"/><linearGradient id="Degradado_sin_nombre_417-92" x1="29.08" y1="62.09" x2="29.08" y2="69.32" xlink:href="#Degradado_sin_nombre_417"/><linearGradient id="Degradado_sin_nombre_417-93" x1="37.42" y1="62.09" x2="37.42" y2="69.32" xlink:href="#Degradado_sin_nombre_417"/><linearGradient id="Degradado_sin_nombre_417-94" x1="45.75" y1="62.09" x2="45.75" y2="69.32" xlink:href="#Degradado_sin_nombre_417"/><linearGradient id="Degradado_sin_nombre_417-95" x1="54.08" y1="62.09" x2="54.08" y2="69.32" xlink:href="#Degradado_sin_nombre_417"/><linearGradient id="Degradado_sin_nombre_417-96" x1="62.41" y1="62.09" x2="62.41" y2="69.32" xlink:href="#Degradado_sin_nombre_417"/><linearGradient id="Degradado_sin_nombre_417-97" x1="70.75" y1="62.09" x2="70.75" y2="69.32" xlink:href="#Degradado_sin_nombre_417"/><linearGradient id="Degradado_sin_nombre_417-98" x1="79.08" y1="62.09" x2="79.08" y2="69.32" xlink:href="#Degradado_sin_nombre_417"/><linearGradient id="Degradado_sin_nombre_417-99" x1="87.41" y1="62.09" x2="87.41" y2="69.32" xlink:href="#Degradado_sin_nombre_417"/><linearGradient id="Degradado_sin_nombre_417-100" x1="95.74" y1="62.09" x2="95.74" y2="69.32" xlink:href="#Degradado_sin_nombre_417"/><linearGradient id="Degradado_sin_nombre_417-101" x1="0" y1="57.74" x2="0" y2="64.97" xlink:href="#Degradado_sin_nombre_417"/><linearGradient id="Degradado_sin_nombre_417-102" x1="8.32" y1="57.74" x2="8.32" y2="64.97" xlink:href="#Degradado_sin_nombre_417"/><linearGradient id="Degradado_sin_nombre_417-103" x1="16.65" y1="57.74" x2="16.65" y2="64.97" xlink:href="#Degradado_sin_nombre_417"/><linearGradient id="Degradado_sin_nombre_417-104" x1="25" y1="57.74" x2="25" y2="64.97" xlink:href="#Degradado_sin_nombre_417"/><linearGradient id="Degradado_sin_nombre_417-105" x1="33.32" y1="57.74" x2="33.32" y2="64.97" xlink:href="#Degradado_sin_nombre_417"/><linearGradient id="Degradado_sin_nombre_417-106" x1="41.65" y1="57.74" x2="41.65" y2="64.97" xlink:href="#Degradado_sin_nombre_417"/><linearGradient id="Degradado_sin_nombre_417-107" x1="50" y1="57.74" x2="50" y2="64.97" xlink:href="#Degradado_sin_nombre_417"/><linearGradient id="Degradado_sin_nombre_417-108" x1="58.32" y1="57.74" x2="58.32" y2="64.97" xlink:href="#Degradado_sin_nombre_417"/><linearGradient id="Degradado_sin_nombre_417-109" x1="66.65" y1="57.74" x2="66.65" y2="64.97" xlink:href="#Degradado_sin_nombre_417"/><linearGradient id="Degradado_sin_nombre_417-110" x1="75" y1="57.74" x2="75" y2="64.97" xlink:href="#Degradado_sin_nombre_417"/><linearGradient id="Degradado_sin_nombre_417-111" x1="83.32" y1="57.74" x2="83.32" y2="64.97" xlink:href="#Degradado_sin_nombre_417"/><linearGradient id="Degradado_sin_nombre_417-112" x1="91.65" y1="57.74" x2="91.65" y2="64.97" xlink:href="#Degradado_sin_nombre_417"/><linearGradient id="Degradado_sin_nombre_417-113" x1="99.99" y1="57.74" x2="99.99" y2="64.97" xlink:href="#Degradado_sin_nombre_417"/><linearGradient id="Degradado_sin_nombre_417-114" x1="4.08" y1="53.46" x2="4.08" y2="60.69" xlink:href="#Degradado_sin_nombre_417"/><linearGradient id="Degradado_sin_nombre_417-115" x1="12.44" y1="53.46" x2="12.44" y2="60.69" xlink:href="#Degradado_sin_nombre_417"/><linearGradient id="Degradado_sin_nombre_417-116" x1="20.75" y1="53.46" x2="20.75" y2="60.69" xlink:href="#Degradado_sin_nombre_417"/><linearGradient id="Degradado_sin_nombre_417-117" x1="29.08" y1="53.46" x2="29.08" y2="60.69" xlink:href="#Degradado_sin_nombre_417"/><linearGradient id="Degradado_sin_nombre_417-118" x1="37.44" y1="53.46" x2="37.44" y2="60.69" xlink:href="#Degradado_sin_nombre_417"/><linearGradient id="Degradado_sin_nombre_417-119" x1="45.75" y1="53.46" x2="45.75" y2="60.69" xlink:href="#Degradado_sin_nombre_417"/><linearGradient id="Degradado_sin_nombre_417-120" x1="54.08" y1="53.46" x2="54.08" y2="60.69" xlink:href="#Degradado_sin_nombre_417"/><linearGradient id="Degradado_sin_nombre_417-121" x1="62.44" y1="53.46" x2="62.44" y2="60.69" xlink:href="#Degradado_sin_nombre_417"/><linearGradient id="Degradado_sin_nombre_417-122" x1="70.75" y1="53.46" x2="70.75" y2="60.69" xlink:href="#Degradado_sin_nombre_417"/><linearGradient id="Degradado_sin_nombre_417-123" x1="79.08" y1="53.46" x2="79.08" y2="60.69" xlink:href="#Degradado_sin_nombre_417"/><linearGradient id="Degradado_sin_nombre_417-124" x1="87.41" y1="53.46" x2="87.41" y2="60.69" xlink:href="#Degradado_sin_nombre_417"/><linearGradient id="Degradado_sin_nombre_417-125" x1="95.74" y1="53.46" x2="95.74" y2="60.69" xlink:href="#Degradado_sin_nombre_417"/><linearGradient id="Degradado_sin_nombre_417-126" x1="0" y1="49.1" x2="0" y2="56.33" xlink:href="#Degradado_sin_nombre_417"/><linearGradient id="Degradado_sin_nombre_417-127" x1="8.32" y1="49.1" x2="8.32" y2="56.33" xlink:href="#Degradado_sin_nombre_417"/><linearGradient id="Degradado_sin_nombre_417-128" x1="16.65" y1="49.1" x2="16.65" y2="56.33" xlink:href="#Degradado_sin_nombre_417"/><linearGradient id="Degradado_sin_nombre_417-129" x1="25" y1="49.1" x2="25" y2="56.33" xlink:href="#Degradado_sin_nombre_417"/><linearGradient id="Degradado_sin_nombre_417-130" x1="33.32" y1="49.1" x2="33.32" y2="56.33" xlink:href="#Degradado_sin_nombre_417"/><linearGradient id="Degradado_sin_nombre_417-131" x1="41.65" y1="49.1" x2="41.65" y2="56.33" xlink:href="#Degradado_sin_nombre_417"/><linearGradient id="Degradado_sin_nombre_417-132" x1="50" y1="49.1" x2="50" y2="56.33" xlink:href="#Degradado_sin_nombre_417"/><linearGradient id="Degradado_sin_nombre_417-133" x1="58.32" y1="49.1" x2="58.32" y2="56.33" xlink:href="#Degradado_sin_nombre_417"/><linearGradient id="Degradado_sin_nombre_417-134" x1="66.65" y1="49.1" x2="66.65" y2="56.33" xlink:href="#Degradado_sin_nombre_417"/><linearGradient id="Degradado_sin_nombre_417-135" x1="75" y1="49.1" x2="75" y2="56.33" xlink:href="#Degradado_sin_nombre_417"/><linearGradient id="Degradado_sin_nombre_417-136" x1="83.32" y1="49.1" x2="83.32" y2="56.33" xlink:href="#Degradado_sin_nombre_417"/><linearGradient id="Degradado_sin_nombre_417-137" x1="91.65" y1="49.1" x2="91.65" y2="56.33" xlink:href="#Degradado_sin_nombre_417"/><linearGradient id="Degradado_sin_nombre_417-138" x1="100.01" y1="49.1" x2="100.01" y2="56.33" xlink:href="#Degradado_sin_nombre_417"/><linearGradient id="Degradado_sin_nombre_417-139" x1="4.08" y1="44.83" x2="4.08" y2="52.06" xlink:href="#Degradado_sin_nombre_417"/><linearGradient id="Degradado_sin_nombre_417-140" x1="12.42" y1="44.83" x2="12.42" y2="52.06" xlink:href="#Degradado_sin_nombre_417"/><linearGradient id="Degradado_sin_nombre_417-141" x1="20.75" y1="44.83" x2="20.75" y2="52.06" xlink:href="#Degradado_sin_nombre_417"/><linearGradient id="Degradado_sin_nombre_417-142" x1="29.08" y1="44.83" x2="29.08" y2="52.06" xlink:href="#Degradado_sin_nombre_417"/><linearGradient id="Degradado_sin_nombre_417-143" x1="37.42" y1="44.83" x2="37.42" y2="52.06" xlink:href="#Degradado_sin_nombre_417"/><linearGradient id="Degradado_sin_nombre_417-144" x1="45.75" y1="44.83" x2="45.75" y2="52.06" xlink:href="#Degradado_sin_nombre_417"/><linearGradient id="Degradado_sin_nombre_417-145" x1="54.08" y1="44.83" x2="54.08" y2="52.06" xlink:href="#Degradado_sin_nombre_417"/><linearGradient id="Degradado_sin_nombre_417-146" x1="62.41" y1="44.83" x2="62.41" y2="52.06" xlink:href="#Degradado_sin_nombre_417"/><linearGradient id="Degradado_sin_nombre_417-147" x1="70.75" y1="44.83" x2="70.75" y2="52.06" xlink:href="#Degradado_sin_nombre_417"/><linearGradient id="Degradado_sin_nombre_417-148" x1="79.08" y1="44.83" x2="79.08" y2="52.06" xlink:href="#Degradado_sin_nombre_417"/><linearGradient id="Degradado_sin_nombre_417-149" x1="87.41" y1="44.83" x2="87.41" y2="52.06" xlink:href="#Degradado_sin_nombre_417"/><linearGradient id="Degradado_sin_nombre_417-150" x1="95.74" y1="44.83" x2="95.74" y2="52.06" xlink:href="#Degradado_sin_nombre_417"/><linearGradient id="Degradado_sin_nombre_417-151" x1="0" y1="40.47" x2="0" y2="47.7" xlink:href="#Degradado_sin_nombre_417"/><linearGradient id="Degradado_sin_nombre_417-152" x1="8.32" y1="40.47" x2="8.32" y2="47.7" xlink:href="#Degradado_sin_nombre_417"/><linearGradient id="Degradado_sin_nombre_417-153" x1="16.66" y1="40.47" x2="16.66" y2="47.7" xlink:href="#Degradado_sin_nombre_417"/><linearGradient id="Degradado_sin_nombre_417-154" x1="25" y1="40.47" x2="25" y2="47.7" xlink:href="#Degradado_sin_nombre_417"/><linearGradient id="Degradado_sin_nombre_417-155" x1="33.32" y1="40.47" x2="33.32" y2="47.7" xlink:href="#Degradado_sin_nombre_417"/><linearGradient id="Degradado_sin_nombre_417-156" x1="41.65" y1="40.47" x2="41.65" y2="47.7" xlink:href="#Degradado_sin_nombre_417"/><linearGradient id="Degradado_sin_nombre_417-157" x1="50" y1="40.47" x2="50" y2="47.7" xlink:href="#Degradado_sin_nombre_417"/><linearGradient id="Degradado_sin_nombre_417-158" x1="58.32" y1="40.47" x2="58.32" y2="47.7" xlink:href="#Degradado_sin_nombre_417"/><linearGradient id="Degradado_sin_nombre_417-159" x1="66.65" y1="40.47" x2="66.65" y2="47.7" xlink:href="#Degradado_sin_nombre_417"/><linearGradient id="Degradado_sin_nombre_417-160" x1="75" y1="40.47" x2="75" y2="47.7" xlink:href="#Degradado_sin_nombre_417"/><linearGradient id="Degradado_sin_nombre_417-161" x1="83.32" y1="40.47" x2="83.32" y2="47.7" xlink:href="#Degradado_sin_nombre_417"/><linearGradient id="Degradado_sin_nombre_417-162" x1="91.65" y1="40.47" x2="91.65" y2="47.7" xlink:href="#Degradado_sin_nombre_417"/><linearGradient id="Degradado_sin_nombre_417-163" x1="99.99" y1="40.47" x2="99.99" y2="47.7" xlink:href="#Degradado_sin_nombre_417"/><linearGradient id="Degradado_sin_nombre_417-164" x1="4.08" y1="36.19" x2="4.08" y2="43.42" xlink:href="#Degradado_sin_nombre_417"/><linearGradient id="Degradado_sin_nombre_417-165" x1="12.42" y1="36.19" x2="12.42" y2="43.42" xlink:href="#Degradado_sin_nombre_417"/><linearGradient id="Degradado_sin_nombre_417-166" x1="20.75" y1="36.19" x2="20.75" y2="43.42" xlink:href="#Degradado_sin_nombre_417"/><linearGradient id="Degradado_sin_nombre_417-167" x1="29.08" y1="36.19" x2="29.08" y2="43.42" xlink:href="#Degradado_sin_nombre_417"/><linearGradient id="Degradado_sin_nombre_417-168" x1="37.42" y1="36.19" x2="37.42" y2="43.42" xlink:href="#Degradado_sin_nombre_417"/><linearGradient id="Degradado_sin_nombre_417-169" x1="45.75" y1="36.19" x2="45.75" y2="43.42" xlink:href="#Degradado_sin_nombre_417"/><linearGradient id="Degradado_sin_nombre_417-170" x1="54.08" y1="36.19" x2="54.08" y2="43.42" xlink:href="#Degradado_sin_nombre_417"/><linearGradient id="Degradado_sin_nombre_417-171" x1="62.41" y1="36.19" x2="62.41" y2="43.42" xlink:href="#Degradado_sin_nombre_417"/><linearGradient id="Degradado_sin_nombre_417-172" x1="70.75" y1="36.19" x2="70.75" y2="43.42" xlink:href="#Degradado_sin_nombre_417"/><linearGradient id="Degradado_sin_nombre_417-173" x1="79.08" y1="36.19" x2="79.08" y2="43.42" xlink:href="#Degradado_sin_nombre_417"/><linearGradient id="Degradado_sin_nombre_417-174" x1="87.41" y1="36.19" x2="87.41" y2="43.42" xlink:href="#Degradado_sin_nombre_417"/><linearGradient id="Degradado_sin_nombre_417-175" x1="95.74" y1="36.19" x2="95.74" y2="43.42" xlink:href="#Degradado_sin_nombre_417"/><linearGradient id="Degradado_sin_nombre_417-176" x1="-0.01" y1="31.84" x2="-0.01" y2="39.07" xlink:href="#Degradado_sin_nombre_417"/><linearGradient id="Degradado_sin_nombre_417-177" x1="8.32" y1="31.84" x2="8.32" y2="39.07" xlink:href="#Degradado_sin_nombre_417"/><linearGradient id="Degradado_sin_nombre_417-178" x1="16.65" y1="31.84" x2="16.65" y2="39.07" xlink:href="#Degradado_sin_nombre_417"/><linearGradient id="Degradado_sin_nombre_417-179" x1="25" y1="31.84" x2="25" y2="39.07" xlink:href="#Degradado_sin_nombre_417"/><linearGradient id="Degradado_sin_nombre_417-180" x1="33.32" y1="31.84" x2="33.32" y2="39.07" xlink:href="#Degradado_sin_nombre_417"/><linearGradient id="Degradado_sin_nombre_417-181" x1="41.65" y1="31.84" x2="41.65" y2="39.07" xlink:href="#Degradado_sin_nombre_417"/><linearGradient id="Degradado_sin_nombre_417-182" x1="50" y1="31.84" x2="50" y2="39.07" xlink:href="#Degradado_sin_nombre_417"/><linearGradient id="Degradado_sin_nombre_417-183" x1="58.32" y1="31.84" x2="58.32" y2="39.07" xlink:href="#Degradado_sin_nombre_417"/><linearGradient id="Degradado_sin_nombre_417-184" x1="66.65" y1="31.84" x2="66.65" y2="39.07" xlink:href="#Degradado_sin_nombre_417"/><linearGradient id="Degradado_sin_nombre_417-185" x1="75" y1="31.84" x2="75" y2="39.07" xlink:href="#Degradado_sin_nombre_417"/><linearGradient id="Degradado_sin_nombre_417-186" x1="83.32" y1="31.84" x2="83.32" y2="39.07" xlink:href="#Degradado_sin_nombre_417"/><linearGradient id="Degradado_sin_nombre_417-187" x1="91.65" y1="31.84" x2="91.65" y2="39.07" xlink:href="#Degradado_sin_nombre_417"/><linearGradient id="Degradado_sin_nombre_417-188" x1="99.99" y1="31.84" x2="99.99" y2="39.07" xlink:href="#Degradado_sin_nombre_417"/><linearGradient id="Degradado_sin_nombre_417-189" x1="4.08" y1="27.56" x2="4.08" y2="34.79" xlink:href="#Degradado_sin_nombre_417"/><linearGradient id="Degradado_sin_nombre_417-190" x1="12.42" y1="27.56" x2="12.42" y2="34.79" xlink:href="#Degradado_sin_nombre_417"/><linearGradient id="Degradado_sin_nombre_417-191" x1="20.75" y1="27.56" x2="20.75" y2="34.79" xlink:href="#Degradado_sin_nombre_417"/><linearGradient id="Degradado_sin_nombre_417-192" x1="29.08" y1="27.56" x2="29.08" y2="34.79" xlink:href="#Degradado_sin_nombre_417"/><linearGradient id="Degradado_sin_nombre_417-193" x1="37.42" y1="27.56" x2="37.42" y2="34.79" xlink:href="#Degradado_sin_nombre_417"/><linearGradient id="Degradado_sin_nombre_417-194" x1="45.75" y1="27.56" x2="45.75" y2="34.79" xlink:href="#Degradado_sin_nombre_417"/><linearGradient id="Degradado_sin_nombre_417-195" x1="54.08" y1="27.56" x2="54.08" y2="34.79" xlink:href="#Degradado_sin_nombre_417"/><linearGradient id="Degradado_sin_nombre_417-196" x1="62.41" y1="27.56" x2="62.41" y2="34.79" xlink:href="#Degradado_sin_nombre_417"/><linearGradient id="Degradado_sin_nombre_417-197" x1="70.75" y1="27.56" x2="70.75" y2="34.79" xlink:href="#Degradado_sin_nombre_417"/><linearGradient id="Degradado_sin_nombre_417-198" x1="79.08" y1="27.56" x2="79.08" y2="34.79" xlink:href="#Degradado_sin_nombre_417"/><linearGradient id="Degradado_sin_nombre_417-199" x1="87.41" y1="27.56" x2="87.41" y2="34.79" xlink:href="#Degradado_sin_nombre_417"/><linearGradient id="Degradado_sin_nombre_417-200" x1="95.74" y1="27.56" x2="95.74" y2="34.79" xlink:href="#Degradado_sin_nombre_417"/><linearGradient id="Degradado_sin_nombre_417-201" x1="0" y1="23.21" x2="0" y2="30.44" xlink:href="#Degradado_sin_nombre_417"/><linearGradient id="Degradado_sin_nombre_417-202" x1="8.32" y1="23.21" x2="8.32" y2="30.44" xlink:href="#Degradado_sin_nombre_417"/><linearGradient id="Degradado_sin_nombre_417-203" x1="16.65" y1="23.21" x2="16.65" y2="30.44" xlink:href="#Degradado_sin_nombre_417"/><linearGradient id="Degradado_sin_nombre_417-204" x1="25" y1="23.21" x2="25" y2="30.44" xlink:href="#Degradado_sin_nombre_417"/><linearGradient id="Degradado_sin_nombre_417-205" x1="33.32" y1="23.21" x2="33.32" y2="30.44" xlink:href="#Degradado_sin_nombre_417"/><linearGradient id="Degradado_sin_nombre_417-206" x1="41.65" y1="23.21" x2="41.65" y2="30.44" xlink:href="#Degradado_sin_nombre_417"/><linearGradient id="Degradado_sin_nombre_417-207" x1="50" y1="23.21" x2="50" y2="30.44" xlink:href="#Degradado_sin_nombre_417"/><linearGradient id="Degradado_sin_nombre_417-208" x1="58.32" y1="23.21" x2="58.32" y2="30.44" xlink:href="#Degradado_sin_nombre_417"/><linearGradient id="Degradado_sin_nombre_417-209" x1="66.65" y1="23.21" x2="66.65" y2="30.44" xlink:href="#Degradado_sin_nombre_417"/><linearGradient id="Degradado_sin_nombre_417-210" x1="75" y1="23.21" x2="75" y2="30.44" xlink:href="#Degradado_sin_nombre_417"/><linearGradient id="Degradado_sin_nombre_417-211" x1="83.32" y1="23.21" x2="83.32" y2="30.44" xlink:href="#Degradado_sin_nombre_417"/><linearGradient id="Degradado_sin_nombre_417-212" x1="91.65" y1="23.21" x2="91.65" y2="30.44" xlink:href="#Degradado_sin_nombre_417"/><linearGradient id="Degradado_sin_nombre_417-213" x1="99.99" y1="23.21" x2="99.99" y2="30.44" xlink:href="#Degradado_sin_nombre_417"/><linearGradient id="Degradado_sin_nombre_417-214" x1="4.08" y1="18.93" x2="4.08" y2="26.16" xlink:href="#Degradado_sin_nombre_417"/><linearGradient id="Degradado_sin_nombre_417-215" x1="12.44" y1="18.93" x2="12.44" y2="26.16" xlink:href="#Degradado_sin_nombre_417"/><linearGradient id="Degradado_sin_nombre_417-216" x1="20.75" y1="18.93" x2="20.75" y2="26.16" xlink:href="#Degradado_sin_nombre_417"/><linearGradient id="Degradado_sin_nombre_417-217" x1="29.08" y1="18.93" x2="29.08" y2="26.16" xlink:href="#Degradado_sin_nombre_417"/><linearGradient id="Degradado_sin_nombre_417-218" x1="37.44" y1="18.93" x2="37.44" y2="26.16" xlink:href="#Degradado_sin_nombre_417"/><linearGradient id="Degradado_sin_nombre_417-219" x1="45.75" y1="18.93" x2="45.75" y2="26.16" xlink:href="#Degradado_sin_nombre_417"/><linearGradient id="Degradado_sin_nombre_417-220" x1="54.08" y1="18.93" x2="54.08" y2="26.16" xlink:href="#Degradado_sin_nombre_417"/><linearGradient id="Degradado_sin_nombre_417-221" x1="62.44" y1="18.93" x2="62.44" y2="26.16" xlink:href="#Degradado_sin_nombre_417"/><linearGradient id="Degradado_sin_nombre_417-222" x1="70.75" y1="18.93" x2="70.75" y2="26.16" xlink:href="#Degradado_sin_nombre_417"/><linearGradient id="Degradado_sin_nombre_417-223" x1="79.08" y1="18.93" x2="79.08" y2="26.16" xlink:href="#Degradado_sin_nombre_417"/><linearGradient id="Degradado_sin_nombre_417-224" x1="87.41" y1="18.93" x2="87.41" y2="26.16" xlink:href="#Degradado_sin_nombre_417"/><linearGradient id="Degradado_sin_nombre_417-225" x1="95.74" y1="18.93" x2="95.74" y2="26.16" xlink:href="#Degradado_sin_nombre_417"/><linearGradient id="Degradado_sin_nombre_417-226" x1="0" y1="14.57" x2="0" y2="21.8" xlink:href="#Degradado_sin_nombre_417"/><linearGradient id="Degradado_sin_nombre_417-227" x1="8.32" y1="14.57" x2="8.32" y2="21.8" xlink:href="#Degradado_sin_nombre_417"/><linearGradient id="Degradado_sin_nombre_417-228" x1="16.66" y1="14.57" x2="16.66" y2="21.8" xlink:href="#Degradado_sin_nombre_417"/><linearGradient id="Degradado_sin_nombre_417-229" x1="25" y1="14.57" x2="25" y2="21.8" xlink:href="#Degradado_sin_nombre_417"/><linearGradient id="Degradado_sin_nombre_417-230" x1="33.32" y1="14.57" x2="33.32" y2="21.8" xlink:href="#Degradado_sin_nombre_417"/><linearGradient id="Degradado_sin_nombre_417-231" x1="41.65" y1="14.57" x2="41.65" y2="21.8" xlink:href="#Degradado_sin_nombre_417"/><linearGradient id="Degradado_sin_nombre_417-232" x1="50" y1="14.57" x2="50" y2="21.8" xlink:href="#Degradado_sin_nombre_417"/><linearGradient id="Degradado_sin_nombre_417-233" x1="58.32" y1="14.57" x2="58.32" y2="21.8" xlink:href="#Degradado_sin_nombre_417"/><linearGradient id="Degradado_sin_nombre_417-234" x1="66.65" y1="14.57" x2="66.65" y2="21.8" xlink:href="#Degradado_sin_nombre_417"/><linearGradient id="Degradado_sin_nombre_417-235" x1="75" y1="14.57" x2="75" y2="21.8" xlink:href="#Degradado_sin_nombre_417"/><linearGradient id="Degradado_sin_nombre_417-236" x1="83.32" y1="14.57" x2="83.32" y2="21.8" xlink:href="#Degradado_sin_nombre_417"/><linearGradient id="Degradado_sin_nombre_417-237" x1="91.65" y1="14.57" x2="91.65" y2="21.8" xlink:href="#Degradado_sin_nombre_417"/><linearGradient id="Degradado_sin_nombre_417-238" x1="100.01" y1="14.57" x2="100.01" y2="21.8" xlink:href="#Degradado_sin_nombre_417"/><linearGradient id="Degradado_sin_nombre_417-239" x1="4.08" y1="10.3" x2="4.08" y2="17.53" xlink:href="#Degradado_sin_nombre_417"/><linearGradient id="Degradado_sin_nombre_417-240" x1="12.42" y1="10.3" x2="12.42" y2="17.53" xlink:href="#Degradado_sin_nombre_417"/><linearGradient id="Degradado_sin_nombre_417-241" x1="20.75" y1="10.3" x2="20.75" y2="17.53" xlink:href="#Degradado_sin_nombre_417"/><linearGradient id="Degradado_sin_nombre_417-242" x1="29.08" y1="10.3" x2="29.08" y2="17.53" xlink:href="#Degradado_sin_nombre_417"/><linearGradient id="Degradado_sin_nombre_417-243" x1="37.42" y1="10.3" x2="37.42" y2="17.53" xlink:href="#Degradado_sin_nombre_417"/><linearGradient id="Degradado_sin_nombre_417-244" x1="45.75" y1="10.3" x2="45.75" y2="17.53" xlink:href="#Degradado_sin_nombre_417"/><linearGradient id="Degradado_sin_nombre_417-245" x1="54.08" y1="10.3" x2="54.08" y2="17.53" xlink:href="#Degradado_sin_nombre_417"/><linearGradient id="Degradado_sin_nombre_417-246" x1="62.41" y1="10.3" x2="62.41" y2="17.53" xlink:href="#Degradado_sin_nombre_417"/><linearGradient id="Degradado_sin_nombre_417-247" x1="70.75" y1="10.3" x2="70.75" y2="17.53" xlink:href="#Degradado_sin_nombre_417"/><linearGradient id="Degradado_sin_nombre_417-248" x1="79.08" y1="10.3" x2="79.08" y2="17.53" xlink:href="#Degradado_sin_nombre_417"/><linearGradient id="Degradado_sin_nombre_417-249" x1="87.41" y1="10.3" x2="87.41" y2="17.53" xlink:href="#Degradado_sin_nombre_417"/><linearGradient id="Degradado_sin_nombre_417-250" x1="95.74" y1="10.3" x2="95.74" y2="17.53" xlink:href="#Degradado_sin_nombre_417"/><linearGradient id="Degradado_sin_nombre_417-251" x1="0" y1="5.94" x2="0" y2="13.17" xlink:href="#Degradado_sin_nombre_417"/><linearGradient id="Degradado_sin_nombre_417-252" x1="8.32" y1="5.94" x2="8.32" y2="13.17" xlink:href="#Degradado_sin_nombre_417"/><linearGradient id="Degradado_sin_nombre_417-253" x1="16.65" y1="5.94" x2="16.65" y2="13.17" xlink:href="#Degradado_sin_nombre_417"/><linearGradient id="Degradado_sin_nombre_417-254" x1="25" y1="5.94" x2="25" y2="13.17" xlink:href="#Degradado_sin_nombre_417"/><linearGradient id="Degradado_sin_nombre_417-255" x1="33.32" y1="5.94" x2="33.32" y2="13.17" xlink:href="#Degradado_sin_nombre_417"/><linearGradient id="Degradado_sin_nombre_417-256" x1="41.65" y1="5.94" x2="41.65" y2="13.17" xlink:href="#Degradado_sin_nombre_417"/><linearGradient id="Degradado_sin_nombre_417-257" x1="50" y1="5.94" x2="50" y2="13.17" xlink:href="#Degradado_sin_nombre_417"/><linearGradient id="Degradado_sin_nombre_417-258" x1="58.32" y1="5.94" x2="58.32" y2="13.17" xlink:href="#Degradado_sin_nombre_417"/><linearGradient id="Degradado_sin_nombre_417-259" x1="66.65" y1="5.94" x2="66.65" y2="13.17" xlink:href="#Degradado_sin_nombre_417"/><linearGradient id="Degradado_sin_nombre_417-260" x1="75" y1="5.94" x2="75" y2="13.17" xlink:href="#Degradado_sin_nombre_417"/><linearGradient id="Degradado_sin_nombre_417-261" x1="83.32" y1="5.94" x2="83.32" y2="13.17" xlink:href="#Degradado_sin_nombre_417"/><linearGradient id="Degradado_sin_nombre_417-262" x1="91.65" y1="5.94" x2="91.65" y2="13.17" xlink:href="#Degradado_sin_nombre_417"/><linearGradient id="Degradado_sin_nombre_417-263" x1="99.99" y1="5.94" x2="99.99" y2="13.17" xlink:href="#Degradado_sin_nombre_417"/><linearGradient id="Degradado_sin_nombre_417-264" x1="4.08" y1="1.66" x2="4.08" y2="8.89" xlink:href="#Degradado_sin_nombre_417"/><linearGradient id="Degradado_sin_nombre_417-265" x1="12.42" y1="1.66" x2="12.42" y2="8.89" xlink:href="#Degradado_sin_nombre_417"/><linearGradient id="Degradado_sin_nombre_417-266" x1="20.75" y1="1.66" x2="20.75" y2="8.89" xlink:href="#Degradado_sin_nombre_417"/><linearGradient id="Degradado_sin_nombre_417-267" x1="29.08" y1="1.66" x2="29.08" y2="8.89" xlink:href="#Degradado_sin_nombre_417"/><linearGradient id="Degradado_sin_nombre_417-268" x1="37.42" y1="1.66" x2="37.42" y2="8.89" xlink:href="#Degradado_sin_nombre_417"/><linearGradient id="Degradado_sin_nombre_417-269" x1="45.75" y1="1.66" x2="45.75" y2="8.89" xlink:href="#Degradado_sin_nombre_417"/><linearGradient id="Degradado_sin_nombre_417-270" x1="54.08" y1="1.66" x2="54.08" y2="8.89" xlink:href="#Degradado_sin_nombre_417"/><linearGradient id="Degradado_sin_nombre_417-271" x1="62.41" y1="1.66" x2="62.41" y2="8.89" xlink:href="#Degradado_sin_nombre_417"/><linearGradient id="Degradado_sin_nombre_417-272" x1="70.75" y1="1.66" x2="70.75" y2="8.89" xlink:href="#Degradado_sin_nombre_417"/><linearGradient id="Degradado_sin_nombre_417-273" x1="79.08" y1="1.66" x2="79.08" y2="8.89" xlink:href="#Degradado_sin_nombre_417"/><linearGradient id="Degradado_sin_nombre_417-274" x1="87.41" y1="1.66" x2="87.41" y2="8.89" xlink:href="#Degradado_sin_nombre_417"/><linearGradient id="Degradado_sin_nombre_417-275" x1="95.74" y1="1.66" x2="95.74" y2="8.89" xlink:href="#Degradado_sin_nombre_417"/><linearGradient id="Degradado_sin_nombre_417-276" x1="0" y1="-2.69" x2="0" y2="4.54" xlink:href="#Degradado_sin_nombre_417"/><linearGradient id="Degradado_sin_nombre_417-277" x1="8.32" y1="-2.69" x2="8.32" y2="4.54" xlink:href="#Degradado_sin_nombre_417"/><linearGradient id="Degradado_sin_nombre_417-278" x1="16.66" y1="-2.69" x2="16.66" y2="4.54" xlink:href="#Degradado_sin_nombre_417"/><linearGradient id="Degradado_sin_nombre_417-279" x1="25" y1="-2.69" x2="25" y2="4.54" xlink:href="#Degradado_sin_nombre_417"/><linearGradient id="Degradado_sin_nombre_417-280" x1="33.32" y1="-2.69" x2="33.32" y2="4.54" xlink:href="#Degradado_sin_nombre_417"/><linearGradient id="Degradado_sin_nombre_417-281" x1="41.65" y1="-2.69" x2="41.65" y2="4.54" xlink:href="#Degradado_sin_nombre_417"/><linearGradient id="Degradado_sin_nombre_417-282" x1="50" y1="-2.69" x2="50" y2="4.54" xlink:href="#Degradado_sin_nombre_417"/><linearGradient id="Degradado_sin_nombre_417-283" x1="58.32" y1="-2.69" x2="58.32" y2="4.54" xlink:href="#Degradado_sin_nombre_417"/><linearGradient id="Degradado_sin_nombre_417-284" x1="66.65" y1="-2.69" x2="66.65" y2="4.54" xlink:href="#Degradado_sin_nombre_417"/><linearGradient id="Degradado_sin_nombre_417-285" x1="75" y1="-2.69" x2="75" y2="4.54" xlink:href="#Degradado_sin_nombre_417"/><linearGradient id="Degradado_sin_nombre_417-286" x1="83.32" y1="-2.69" x2="83.32" y2="4.54" xlink:href="#Degradado_sin_nombre_417"/><linearGradient id="Degradado_sin_nombre_417-287" x1="91.65" y1="-2.69" x2="91.65" y2="4.54" xlink:href="#Degradado_sin_nombre_417"/><linearGradient id="Degradado_sin_nombre_417-288" x1="99.99" y1="-2.69" x2="99.99" y2="4.54" xlink:href="#Degradado_sin_nombre_417"/></defs><g id="Layer_2" data-name="Layer 2"><rect class="cls-2" width="100" height="94.89"/><g class="cls-3"><path class="cls-4" d="M0-3.61C-.5-3.13-3.08-.48-3.54,0L0,3.62,3.52,0ZM0,3-2.95,0,0-3,3,0Z"/><path class="cls-5" d="M8.31-3.61,4.79,0,8.33,3.62,11.85,0C11.39-.48,8.79-3.13,8.31-3.61ZM8.33,3,5.39,0,8.31-3c.6.6,2.36,2.4,2.95,3Z"/><path class="cls-6" d="M16.64-3.61,13.12,0l3.55,3.62L20.19,0Zm0,6.62-3-3,2.93-3,2.94,3Z"/><path class="cls-7" d="M25-3.61c-.5.48-3.08,3.13-3.54,3.61L25,3.62,28.52,0ZM25,3,22.05,0,25-3l2.94,3Z"/><path class="cls-8" d="M33.31-3.61,29.79,0l3.54,3.62L36.85,0C36.39-.48,33.79-3.13,33.31-3.61Zm0,6.62L30.39,0l2.92-3c.6.6,2.36,2.4,2.95,3Z"/><path class="cls-9" d="M41.64-3.61,38.12,0l3.55,3.62L45.19,0Zm0,6.62L38.72,0l2.93-3,2.94,3Z"/><path class="cls-10" d="M50-3.61c-.5.48-3.08,3.13-3.54,3.61L50,3.62,53.52,0ZM50,3,47,0l3-3,2.94,3Z"/><path class="cls-11" d="M58.31-3.61,54.79,0l3.54,3.62L61.85,0Zm0,6.62L55.38,0l2.93-3c.6.6,2.36,2.4,2.95,3Z"/><path class="cls-12" d="M66.64-3.61,63.12,0l3.55,3.62L70.19,0Zm0,6.62L63.72,0l2.92-3c.6.6,2.36,2.4,3,3Z"/><path class="cls-13" d="M75-3.61c-.5.48-3.08,3.13-3.54,3.61L75,3.62,78.52,0ZM75,3,72,0l3-3,2.94,3Z"/><path class="cls-14" d="M83.31-3.61c-.48.48-3.06,3.13-3.52,3.61l3.54,3.62L86.85,0Zm0,6.62-3-3,2.93-3,3,3Z"/><path class="cls-15" d="M91.64-3.61,88.12,0l3.54,3.62L95.18,0C94.72-.48,92.12-3.13,91.64-3.61Zm0,6.62L88.72,0l2.92-3c.6.6,2.36,2.4,3,3Z"/><path class="cls-16" d="M100-3.61c-.5.48-3.08,3.13-3.55,3.61L100,3.62,103.52,0ZM100,3,97,0l3-3,2.94,3Z"/><path class="cls-17" d="M4.07.67.55,4.28C1,4.76,3.63,7.42,4.09,7.9L7.61,4.28C7.15,3.8,4.55,1.15,4.07.67Zm0,6.62-2.94-3,2.92-3c.6.6,2.36,2.4,3,3Z"/><path class="cls-18" d="M12.4.67,8.88,4.28,12.43,7.9c.46-.48,3-3.14,3.52-3.62Zm0,6.62-3-3,2.93-3,2.94,3Z"/><path class="cls-19" d="M20.74.67c-.48.48-3.06,3.13-3.52,3.61L20.76,7.9l3.52-3.62Zm0,6.62c-.58-.6-2.35-2.41-3-3l2.93-3,2.94,3Z"/><path class="cls-20" d="M29.07.67,25.55,4.28c.48.48,3.08,3.14,3.54,3.62l3.52-3.62C32.15,3.8,29.55,1.15,29.07.67Zm0,6.62-2.94-3,2.92-3c.6.6,2.36,2.4,3,3Z"/><path class="cls-21" d="M37.4.67,33.88,4.28,37.43,7.9c.46-.48,3-3.14,3.52-3.62Zm0,6.62-3-3,2.93-3,2.94,3Z"/><path class="cls-22" d="M45.74.67c-.48.48-3.06,3.13-3.52,3.61L45.76,7.9l3.52-3.62Zm0,6.62c-.59-.6-2.35-2.41-3-3l2.93-3,2.94,3Z"/><path class="cls-23" d="M54.07.67,50.55,4.28c.48.48,3.07,3.14,3.54,3.62l3.52-3.62Zm0,6.62-2.94-3,2.92-3c.6.6,2.36,2.4,3,3Z"/><path class="cls-24" d="M62.4.67,58.88,4.28,62.43,7.9c.46-.48,3-3.14,3.52-3.62Zm0,6.62-2.94-3,2.93-3,2.94,3Z"/><path class="cls-25" d="M70.74.67c-.48.48-3.06,3.13-3.52,3.61L70.76,7.9c.46-.48,3-3.14,3.52-3.62Zm0,6.62c-.59-.6-2.35-2.41-3-3l2.93-3,2.94,3Z"/><path class="cls-26" d="M79.07.67,75.55,4.28c.48.48,3.07,3.14,3.54,3.62l3.52-3.62Zm0,6.62c-.58-.6-2.35-2.41-3-3l2.93-3,3,3Z"/><path class="cls-27" d="M87.4.67,83.88,4.28c.48.48,3.08,3.14,3.54,3.62l3.52-3.62C90.48,3.8,87.88,1.15,87.4.67Zm0,6.62-2.94-3,2.92-3c.6.6,2.36,2.4,3,3Z"/><path class="cls-28" d="M95.74.67c-.48.48-3.06,3.13-3.53,3.61L95.76,7.9c.46-.48,3-3.14,3.52-3.62Zm0,6.62-3-3,2.93-3,2.94,3Z"/><path class="cls-29" d="M0,5c-.48.49-3.06,3.13-3.52,3.62L0,12.25,3.52,8.64Zm0,6.62c-.58-.6-2.35-2.4-2.95-3l3-3,3,3c-.67.61-2.42,2.37-3,3Z"/><path class="cls-30" d="M8.31,5,4.79,8.64c.48.48,3.08,3.13,3.54,3.61l3.52-3.61C11.39,8.15,8.79,5.51,8.31,5Zm0,6.62-2.94-3,2.92-3c.6.6,2.36,2.41,3,3Z"/><path class="cls-31" d="M16.64,5,13.12,8.64l3.55,3.61c.46-.48,3-3.13,3.52-3.61C19.72,8.15,17.12,5.51,16.64,5Zm0,6.62-3-3,2.93-3,2.94,3Z"/><path class="cls-32" d="M25,5c-.48.49-3.06,3.13-3.52,3.62L25,12.25l3.52-3.61Zm0,6.62c-.59-.6-2.35-2.4-2.95-3l2.93-3,2.94,3Z"/><path class="cls-33" d="M33.31,5c-.47.49-3.06,3.13-3.52,3.62.48.48,3.08,3.13,3.54,3.61l3.52-3.61C36.39,8.15,33.79,5.51,33.31,5Zm0,6.62-2.94-3,2.92-3c.6.6,2.36,2.41,3,3Z"/><path class="cls-34" d="M41.64,5,38.12,8.64l3.55,3.61c.46-.48,3-3.13,3.52-3.61C44.72,8.15,42.12,5.51,41.64,5Zm0,6.62-2.94-3,2.93-3,2.94,3Z"/><path class="cls-35" d="M50,5c-.48.49-3.06,3.13-3.52,3.62L50,12.25l3.52-3.61Zm0,6.62c-.59-.6-2.35-2.4-3-3l2.93-3,2.94,3Z"/><path class="cls-36" d="M58.31,5c-.47.49-3.06,3.13-3.52,3.62l3.54,3.61,3.52-3.61Zm0,6.62c-.58-.6-2.35-2.4-3-3l2.93-3c.6.6,2.36,2.41,3,3Z"/><path class="cls-37" d="M66.64,5,63.12,8.64l3.55,3.61c.46-.48,3-3.13,3.52-3.61C69.72,8.15,67.12,5.51,66.64,5Zm0,6.62-2.94-3,2.92-3c.6.6,2.36,2.41,3,3Z"/><path class="cls-38" d="M75,5c-.48.49-3.06,3.13-3.52,3.62L75,12.25c.46-.48,3-3.13,3.52-3.61Zm0,6.62-3-3,2.93-3,2.94,3Z"/><path class="cls-39" d="M83.31,5c-.48.49-3.06,3.13-3.52,3.62l3.54,3.61,3.52-3.61Zm0,6.62c-.58-.6-2.35-2.4-3-3l2.93-3,3,3Z"/><path class="cls-40" d="M91.64,5,88.12,8.64c.48.48,3.08,3.13,3.54,3.61l3.52-3.61C94.72,8.15,92.12,5.51,91.64,5Zm0,6.62-2.94-3,2.92-3c.6.6,2.36,2.41,3,3Z"/><path class="cls-41" d="M100,5,96.45,8.64,100,12.25c.46-.48,3-3.13,3.52-3.61Zm0,6.62-3-3,2.93-3,2.94,3Z"/><path class="cls-42" d="M4.07,9.3.55,12.91l3.54,3.62,3.52-3.62C7.15,12.43,4.55,9.78,4.07,9.3Zm0,6.62-2.94-3,2.92-3c.6.6,2.36,2.4,3,3Z"/><path class="cls-43" d="M12.4,9.3,8.88,12.91l3.55,3.62L16,12.91Zm0,6.62-3-3,2.93-3,2.94,3Z"/><path class="cls-44" d="M20.74,9.3c-.48.48-3.06,3.13-3.52,3.61l3.54,3.62,3.52-3.62Zm0,6.62c-.58-.6-2.35-2.41-3-3l2.93-3,2.94,3Z"/><path class="cls-45" d="M29.07,9.3l-3.52,3.61,3.54,3.62,3.52-3.62C32.15,12.43,29.55,9.78,29.07,9.3Zm0,6.62-2.94-3,2.92-3c.6.6,2.36,2.4,3,3Z"/><path class="cls-46" d="M37.4,9.3l-3.52,3.61,3.55,3.62L41,12.91Zm0,6.62-3-3,2.93-3,2.94,3Z"/><path class="cls-47" d="M45.74,9.3c-.48.48-3.06,3.13-3.52,3.61l3.54,3.62,3.52-3.62Zm0,6.62c-.59-.6-2.35-2.41-3-3l2.93-3,2.94,3Z"/><path class="cls-48" d="M54.07,9.3l-3.52,3.61,3.54,3.62,3.52-3.62Zm0,6.62-2.94-3,2.92-3c.6.6,2.36,2.4,3,3Z"/><path class="cls-49" d="M62.4,9.3l-3.52,3.61,3.55,3.62L66,12.91Zm0,6.62-2.94-3,2.93-3,2.94,3Z"/><path class="cls-50" d="M70.74,9.3c-.48.48-3.06,3.13-3.52,3.61l3.54,3.62,3.52-3.62Zm0,6.62c-.59-.6-2.35-2.41-3-3l2.93-3,2.94,3Z"/><path class="cls-51" d="M79.07,9.3l-3.52,3.61,3.54,3.62,3.52-3.62Zm0,6.62c-.58-.6-2.35-2.41-3-3l2.93-3,3,3Z"/><path class="cls-52" d="M87.4,9.3l-3.52,3.61,3.54,3.62,3.52-3.62C90.48,12.43,87.88,9.78,87.4,9.3Zm0,6.62-2.94-3,2.92-3c.6.6,2.36,2.4,3,3Z"/><path class="cls-53" d="M95.74,9.3c-.48.48-3.06,3.13-3.53,3.61l3.55,3.62,3.52-3.62Zm0,6.62-3-3,2.93-3,2.94,3Z"/><path class="cls-54" d="M0,13.66c-.48.48-3.06,3.13-3.52,3.61L0,20.89l3.52-3.62Zm0,6.62c-.58-.61-2.35-2.41-2.95-3l2.93-3,3,3C2.33,17.87.58,19.67,0,20.28Z"/><path class="cls-55" d="M8.31,13.66,4.79,17.27c.48.48,3.08,3.13,3.54,3.62l3.52-3.62C11.39,16.79,8.79,14.14,8.31,13.66Zm0,6.62c-.58-.61-2.35-2.41-2.94-3l2.92-3c.6.6,2.36,2.4,3,3-.57.59-2.33,2.39-2.91,3Z"/><path class="cls-56" d="M16.64,13.66l-3.52,3.61c.48.48,3.08,3.13,3.55,3.62.46-.49,3-3.14,3.52-3.62Zm0,6.62-3-3,2.93-3,2.94,3c-.51.59-2.26,2.39-2.84,3Z"/><path class="cls-57" d="M25,13.66c-.48.48-3.06,3.13-3.52,3.61L25,20.89c.46-.49,3.05-3.14,3.52-3.62Zm0,6.62c-.59-.61-2.35-2.41-2.95-3l2.93-3,2.94,3C27.33,17.87,25.58,19.67,25,20.28Z"/><path class="cls-58" d="M33.31,13.66l-3.52,3.61c.48.48,3.08,3.13,3.54,3.62l3.52-3.62C36.39,16.79,33.79,14.14,33.31,13.66Zm0,6.62c-.58-.61-2.35-2.41-2.94-3l2.92-3c.6.6,2.36,2.4,3,3-.57.59-2.33,2.39-2.91,3Z"/><path class="cls-59" d="M41.64,13.66l-3.52,3.61c.48.48,3.08,3.13,3.55,3.62.46-.49,3-3.14,3.52-3.62Zm0,6.62c-.58-.61-2.35-2.41-2.94-3l2.93-3,2.94,3c-.57.59-2.33,2.39-2.91,3Z"/><path class="cls-60" d="M50,13.66c-.48.48-3.06,3.13-3.52,3.61L50,20.89c.46-.49,3-3.14,3.52-3.62Zm0,6.62c-.59-.61-2.35-2.41-3-3l2.93-3,2.94,3C52.33,17.87,50.58,19.67,50,20.28Z"/><path class="cls-61" d="M58.31,13.66l-3.52,3.61c.48.48,3.07,3.13,3.54,3.62l3.52-3.62Zm0,6.62c-.58-.61-2.35-2.41-3-3l2.93-3c.6.6,2.36,2.4,3,3-.57.59-2.33,2.39-2.91,3Z"/><path class="cls-62" d="M66.64,13.66l-3.52,3.61c.48.48,3.08,3.13,3.55,3.62.46-.49,3-3.14,3.52-3.62Zm0,6.62c-.58-.61-2.35-2.41-2.94-3l2.92-3c.6.6,2.36,2.4,3,3-.62.59-2.38,2.39-3,3Z"/><path class="cls-63" d="M75,13.66c-.48.48-3.06,3.13-3.52,3.61L75,20.89c.46-.49,3-3.14,3.52-3.62Zm0,6.62-3-3,2.93-3,2.94,3C77.33,17.87,75.58,19.67,75,20.28Z"/><path class="cls-64" d="M83.31,13.66c-.48.48-3.06,3.13-3.52,3.61.48.48,3.07,3.13,3.54,3.62l3.52-3.62Zm0,6.62c-.58-.61-2.35-2.41-3-3l2.93-3,3,3c-.57.59-2.33,2.39-2.91,3Z"/><path class="cls-65" d="M91.64,13.66l-3.52,3.61c.48.48,3.08,3.13,3.54,3.62l3.52-3.62C94.72,16.79,92.12,14.14,91.64,13.66Zm0,6.62c-.58-.61-2.35-2.41-2.94-3l2.92-3c.6.6,2.36,2.4,3,3-.62.59-2.38,2.39-3,3Z"/><path class="cls-66" d="M100,13.66c-.48.48-3.06,3.13-3.53,3.61.48.48,3.08,3.13,3.55,3.62.46-.49,3-3.14,3.52-3.62Zm0,6.62-3-3,2.93-3,2.94,3C102.33,17.87,100.58,19.67,100,20.28Z"/><path class="cls-67" d="M4.07,17.93.55,21.55C1,22,3.63,24.68,4.09,25.16l3.52-3.61C7.15,21.06,4.55,18.42,4.07,17.93Zm0,6.62-2.94-3,2.92-3c.6.6,2.36,2.41,3,3Z"/><path class="cls-68" d="M12.4,17.93,8.88,21.55l3.55,3.61c.46-.48,3-3.13,3.52-3.61C15.48,21.06,12.88,18.42,12.4,17.93Zm0,6.62-3-3,2.93-3,2.94,3Z"/><path class="cls-69" d="M20.74,17.93c-.48.49-3.06,3.13-3.52,3.62l3.54,3.61,3.52-3.61Zm0,6.62c-.58-.6-2.35-2.4-3-3l2.93-3,2.94,3Z"/><path class="cls-70" d="M29.07,17.93l-3.52,3.62c.48.48,3.08,3.13,3.54,3.61l3.52-3.61C32.15,21.06,29.55,18.42,29.07,17.93Zm0,6.62-2.94-3,2.92-3c.6.6,2.36,2.41,3,3Z"/><path class="cls-71" d="M37.4,17.93l-3.52,3.62,3.55,3.61c.46-.48,3-3.13,3.52-3.61C40.48,21.06,37.88,18.42,37.4,17.93Zm0,6.62-3-3,2.93-3,2.94,3Z"/><path class="cls-72" d="M45.74,17.93c-.48.49-3.06,3.13-3.52,3.62l3.54,3.61,3.52-3.61Zm0,6.62c-.59-.6-2.35-2.4-3-3l2.93-3,2.94,3Z"/><path class="cls-73" d="M54.07,17.93c-.47.49-3.06,3.13-3.52,3.62l3.54,3.61,3.52-3.61Zm0,6.62-2.94-3,2.92-3c.6.6,2.36,2.41,3,3Z"/><path class="cls-74" d="M62.4,17.93l-3.52,3.62,3.55,3.61c.46-.48,3-3.13,3.52-3.61C65.48,21.06,62.88,18.42,62.4,17.93Zm0,6.62-2.94-3,2.93-3,2.94,3Z"/><path class="cls-75" d="M70.74,17.93c-.48.49-3.06,3.13-3.52,3.62l3.54,3.61c.46-.48,3-3.13,3.52-3.61Zm0,6.62c-.59-.6-2.35-2.4-3-3l2.93-3,2.94,3Z"/><path class="cls-76" d="M79.07,17.93c-.47.49-3.06,3.13-3.52,3.62l3.54,3.61,3.52-3.61Zm0,6.62c-.58-.6-2.35-2.4-3-3l2.93-3,3,3Z"/><path class="cls-77" d="M87.4,17.93l-3.52,3.62c.48.48,3.08,3.13,3.54,3.61l3.52-3.61C90.48,21.06,87.88,18.42,87.4,17.93Zm0,6.62-2.94-3,2.92-3c.6.6,2.36,2.41,3,3Z"/><path class="cls-78" d="M95.74,17.93l-3.53,3.62,3.55,3.61c.46-.48,3-3.13,3.52-3.61Zm0,6.62-3-3,2.93-3,2.94,3Z"/><path class="cls-79" d="M0,22.29c-.48.48-3.06,3.13-3.52,3.61L0,29.52,3.52,25.9Zm0,6.62c-.58-.6-2.35-2.41-2.95-3l3-3,3,3C2.33,26.5.58,28.31,0,28.91Z"/><path class="cls-80" d="M8.31,22.29,4.79,25.9l3.54,3.62,3.52-3.62C11.39,25.42,8.79,22.77,8.31,22.29Zm0,6.62-2.94-3,2.92-3c.6.6,2.36,2.4,3,3Z"/><path class="cls-81" d="M16.64,22.29,13.12,25.9l3.55,3.62,3.52-3.62Zm0,6.62-3-3,2.93-3,2.94,3Z"/><path class="cls-82" d="M25,22.29c-.48.48-3.06,3.13-3.52,3.61L25,29.52l3.52-3.62Zm0,6.62c-.59-.6-2.35-2.41-2.95-3l2.93-3,2.94,3Z"/><path class="cls-83" d="M33.31,22.29,29.79,25.9l3.54,3.62,3.52-3.62C36.39,25.42,33.79,22.77,33.31,22.29Zm0,6.62-2.94-3,2.92-3c.6.6,2.36,2.4,3,3Z"/><path class="cls-84" d="M41.64,22.29,38.12,25.9l3.55,3.62,3.52-3.62Zm0,6.62-2.94-3,2.93-3,2.94,3Z"/><path class="cls-85" d="M50,22.29c-.48.48-3.06,3.13-3.52,3.61L50,29.52l3.52-3.62Zm0,6.62c-.59-.6-2.35-2.41-3-3l2.93-3,2.94,3Z"/><path class="cls-86" d="M58.31,22.29,54.79,25.9l3.54,3.62,3.52-3.62Zm0,6.62c-.58-.6-2.35-2.41-3-3l2.93-3c.6.6,2.36,2.4,3,3Z"/><path class="cls-87" d="M66.64,22.29,63.12,25.9l3.55,3.62,3.52-3.62Zm0,6.62-2.94-3,2.92-3c.6.6,2.36,2.4,3,3Z"/><path class="cls-88" d="M75,22.29c-.48.48-3.06,3.13-3.52,3.61L75,29.52l3.52-3.62Zm0,6.62-3-3,2.93-3,2.94,3Z"/><path class="cls-89" d="M83.31,22.29c-.48.48-3.06,3.13-3.52,3.61l3.54,3.62,3.52-3.62Zm0,6.62c-.58-.6-2.35-2.41-3-3l2.93-3,3,3Z"/><path class="cls-90" d="M91.64,22.29,88.12,25.9l3.54,3.62,3.52-3.62C94.72,25.42,92.12,22.77,91.64,22.29Zm0,6.62-2.94-3,2.92-3c.6.6,2.36,2.4,3,3Z"/><path class="cls-91" d="M100,22.29c-.48.48-3.06,3.13-3.53,3.61L100,29.52l3.52-3.62Zm0,6.62-3-3,2.93-3,2.94,3Z"/><path class="cls-92" d="M4.07,26.57.55,30.18c.48.48,3.08,3.13,3.54,3.62l3.52-3.62C7.15,29.7,4.55,27.05,4.07,26.57Zm0,6.62c-.58-.61-2.35-2.41-2.94-3l2.92-3c.6.6,2.36,2.4,3,3-.57.59-2.33,2.39-2.91,3Z"/><path class="cls-93" d="M12.4,26.57,8.88,30.18c.48.48,3.08,3.13,3.55,3.62.46-.49,3-3.14,3.52-3.62Zm0,6.62-3-3,2.93-3,2.94,3c-.56.59-2.32,2.39-2.89,3Z"/><path class="cls-94" d="M20.74,26.57c-.48.48-3.06,3.13-3.52,3.61l3.54,3.62c.46-.49,3-3.14,3.52-3.62Zm0,6.62c-.58-.61-2.35-2.41-3-3l2.93-3,2.94,3c-.52.59-2.27,2.39-2.85,3Z"/><path class="cls-95" d="M29.07,26.57l-3.52,3.61c.48.48,3.08,3.13,3.54,3.62l3.52-3.62C32.15,29.7,29.55,27.05,29.07,26.57Zm0,6.62c-.58-.61-2.35-2.41-2.94-3l2.92-3c.6.6,2.36,2.4,3,3-.62.59-2.38,2.39-3,3Z"/><path class="cls-96" d="M37.4,26.57l-3.52,3.61c.48.48,3.08,3.13,3.55,3.62.46-.49,3-3.14,3.52-3.62Zm0,6.62-3-3,2.93-3,2.94,3c-.51.59-2.27,2.39-2.84,3Z"/><path class="cls-97" d="M45.74,26.57c-.48.48-3.06,3.13-3.52,3.61l3.54,3.62c.46-.49,3.05-3.14,3.52-3.62Zm0,6.62c-.59-.61-2.35-2.41-3-3l2.93-3,2.94,3-2.9,3Z"/><path class="cls-98" d="M54.07,26.57l-3.52,3.61c.48.48,3.07,3.13,3.54,3.62l3.52-3.62Zm0,6.62c-.58-.61-2.35-2.41-2.94-3l2.92-3c.6.6,2.36,2.4,3,3-.62.59-2.38,2.39-3,3Z"/><path class="cls-99" d="M62.4,26.57l-3.52,3.61c.48.48,3.08,3.13,3.55,3.62.46-.49,3-3.14,3.52-3.62Zm0,6.62c-.58-.61-2.35-2.41-2.94-3l2.93-3,2.94,3c-.57.59-2.33,2.39-2.91,3Z"/><path class="cls-100" d="M70.74,26.57c-.48.48-3.06,3.13-3.52,3.61l3.54,3.62c.46-.49,3-3.14,3.52-3.62Zm0,6.62c-.59-.61-2.35-2.41-3-3l2.93-3,2.94,3c-.52.59-2.27,2.39-2.85,3Z"/><path class="cls-101" d="M79.07,26.57l-3.52,3.61c.48.48,3.07,3.13,3.54,3.62l3.52-3.62Zm0,6.62c-.58-.61-2.35-2.41-3-3l2.93-3,3,3c-.57.59-2.33,2.39-2.91,3Z"/><path class="cls-102" d="M87.4,26.57l-3.52,3.61c.48.48,3.08,3.13,3.54,3.62l3.52-3.62C90.48,29.7,87.88,27.05,87.4,26.57Zm0,6.62c-.58-.61-2.35-2.41-2.94-3l2.92-3c.6.6,2.36,2.4,3,3-.57.59-2.33,2.39-2.91,3Z"/><path class="cls-103" d="M95.74,26.57c-.48.48-3.06,3.13-3.53,3.61.48.48,3.08,3.13,3.55,3.62.46-.49,3-3.14,3.52-3.62Zm0,6.62-3-3,2.93-3,2.94,3c-.52.59-2.27,2.39-2.85,3Z"/><path class="cls-104" d="M0,30.92c-.48.48-3.06,3.13-3.52,3.62L0,38.15l3.52-3.61Zm0,6.62c-.58-.6-2.35-2.4-2.95-3,.58-.61,2.34-2.41,2.93-3l3,3C2.33,35.14.58,36.94,0,37.54Z"/><path class="cls-105" d="M8.31,30.92,4.79,34.54c.48.48,3.08,3.13,3.54,3.61l3.52-3.61C11.39,34.05,8.79,31.4,8.31,30.92Zm0,6.62-2.94-3c.58-.61,2.33-2.41,2.92-3,.6.6,2.36,2.4,3,3Z"/><path class="cls-106" d="M16.64,30.92l-3.52,3.62,3.55,3.61c.46-.48,3-3.13,3.52-3.61C19.72,34.05,17.12,31.4,16.64,30.92Zm0,6.62-3-3c.58-.61,2.34-2.41,2.93-3l2.94,3Z"/><path class="cls-107" d="M25,30.92c-.48.48-3.06,3.13-3.52,3.62L25,38.15l3.52-3.61Zm0,6.62c-.59-.6-2.35-2.4-2.95-3,.58-.61,2.34-2.41,2.93-3l2.94,3Z"/><path class="cls-108" d="M33.31,30.92c-.47.48-3.06,3.13-3.52,3.62.48.48,3.08,3.13,3.54,3.61l3.52-3.61C36.39,34.05,33.79,31.4,33.31,30.92Zm0,6.62-2.94-3c.58-.61,2.33-2.41,2.92-3,.6.6,2.36,2.4,3,3Z"/><path class="cls-109" d="M41.64,30.92l-3.52,3.62,3.55,3.61c.46-.48,3-3.13,3.52-3.61C44.72,34.05,42.12,31.4,41.64,30.92Zm0,6.62-2.94-3c.58-.61,2.34-2.41,2.93-3l2.94,3Z"/><path class="cls-110" d="M50,30.92c-.48.48-3.06,3.13-3.52,3.62L50,38.15l3.52-3.61Zm0,6.62c-.59-.6-2.35-2.4-3-3,.58-.61,2.34-2.41,2.93-3l2.94,3Z"/><path class="cls-111" d="M58.31,30.92c-.47.48-3.06,3.13-3.52,3.62l3.54,3.61,3.52-3.61C61.38,34.05,58.79,31.4,58.31,30.92Zm0,6.62c-.58-.6-2.35-2.4-3-3l2.93-3c.6.6,2.36,2.4,3,3Z"/><path class="cls-112" d="M66.64,30.92l-3.52,3.62,3.55,3.61c.46-.48,3-3.13,3.52-3.61C69.72,34.05,67.12,31.4,66.64,30.92Zm0,6.62-2.94-3c.58-.61,2.33-2.41,2.92-3,.6.6,2.36,2.4,3,3Z"/><path class="cls-113" d="M75,30.92c-.48.48-3.06,3.13-3.52,3.62L75,38.15c.46-.48,3-3.13,3.52-3.61Zm0,6.62-3-3c.58-.61,2.34-2.41,2.93-3l2.94,3Z"/><path class="cls-114" d="M83.31,30.92c-.48.48-3.06,3.13-3.52,3.62l3.54,3.61,3.52-3.61C86.38,34.05,83.79,31.4,83.31,30.92Zm0,6.62c-.58-.6-2.35-2.4-3-3,.58-.61,2.34-2.41,2.93-3l3,3Z"/><path class="cls-115" d="M91.64,30.92l-3.52,3.62c.48.48,3.08,3.13,3.54,3.61l3.52-3.61C94.72,34.05,92.12,31.4,91.64,30.92Zm0,6.62-2.94-3c.58-.61,2.33-2.41,2.92-3,.6.6,2.36,2.4,3,3Z"/><path class="cls-116" d="M100,30.92c-.48.48-3.06,3.13-3.53,3.62L100,38.15c.46-.48,3-3.13,3.52-3.61Zm0,6.62-3-3c.58-.61,2.34-2.41,2.93-3l2.94,3Z"/><path class="cls-117" d="M4.07,35.2.55,38.81l3.54,3.62,3.52-3.62C7.15,38.33,4.55,35.68,4.07,35.2Zm0,6.62-2.94-3,2.92-3c.6.6,2.36,2.4,3,3Z"/><path class="cls-118" d="M12.4,35.2,8.88,38.81l3.55,3.62L16,38.81Zm0,6.62-3-3,2.93-3,2.94,3Z"/><path class="cls-119" d="M20.74,35.2c-.48.48-3.06,3.13-3.52,3.61l3.54,3.62,3.52-3.62Zm0,6.62c-.58-.6-2.35-2.41-3-3l2.93-3,2.94,3Z"/><path class="cls-120" d="M29.07,35.2l-3.52,3.61,3.54,3.62,3.52-3.62C32.15,38.33,29.55,35.68,29.07,35.2Zm0,6.62-2.94-3,2.92-3c.6.6,2.36,2.4,3,3Z"/><path class="cls-121" d="M37.4,35.2l-3.52,3.61,3.55,3.62L41,38.81Zm0,6.62-3-3,2.93-3,2.94,3Z"/><path class="cls-122" d="M45.74,35.2c-.48.48-3.06,3.13-3.52,3.61l3.54,3.62,3.52-3.62Zm0,6.62c-.59-.6-2.35-2.41-3-3l2.93-3,2.94,3Z"/><path class="cls-123" d="M54.07,35.2l-3.52,3.61,3.54,3.62,3.52-3.62Zm0,6.62-2.94-3,2.92-3c.6.6,2.36,2.4,3,3Z"/><path class="cls-124" d="M62.4,35.2l-3.52,3.61,3.55,3.62L66,38.81Zm0,6.62-2.94-3,2.93-3,2.94,3Z"/><path class="cls-125" d="M70.74,35.2c-.48.48-3.06,3.13-3.52,3.61l3.54,3.62,3.52-3.62Zm0,6.62c-.59-.6-2.35-2.41-3-3l2.93-3,2.94,3Z"/><path class="cls-126" d="M79.07,35.2l-3.52,3.61,3.54,3.62,3.52-3.62Zm0,6.62c-.58-.6-2.35-2.41-3-3l2.93-3,3,3Z"/><path class="cls-127" d="M87.4,35.2l-3.52,3.61,3.54,3.62,3.52-3.62C90.48,38.33,87.88,35.68,87.4,35.2Zm0,6.62-2.94-3,2.92-3c.6.6,2.36,2.4,3,3Z"/><path class="cls-128" d="M95.74,35.2c-.48.48-3.06,3.13-3.53,3.61l3.55,3.62,3.52-3.62Zm0,6.62-3-3,2.93-3,2.94,3Z"/><path class="cls-129" d="M0,39.56c-.48.48-3.06,3.13-3.52,3.61L0,46.79l3.52-3.62Zm0,6.61c-.58-.6-2.35-2.4-2.95-3l2.93-3,3,3C2.33,43.77.58,45.57,0,46.17Z"/><path class="cls-130" d="M8.31,39.56,4.79,43.17c.48.48,3.08,3.13,3.54,3.62l3.52-3.62C11.39,42.69,8.79,40,8.31,39.56Zm0,6.61-2.94-3,2.92-3c.6.6,2.36,2.4,3,3Z"/><path class="cls-131" d="M16.64,39.56l-3.52,3.61c.48.48,3.08,3.13,3.55,3.62.46-.49,3-3.14,3.52-3.62Zm0,6.61-3-3,2.93-3,2.94,3Z"/><path class="cls-132" d="M25,39.56c-.48.48-3.06,3.13-3.52,3.61L25,46.79c.46-.49,3.05-3.14,3.52-3.62Zm0,6.61c-.59-.6-2.35-2.4-2.95-3l2.93-3,2.94,3Z"/><path class="cls-133" d="M33.31,39.56l-3.52,3.61c.48.48,3.08,3.13,3.54,3.62l3.52-3.62C36.39,42.69,33.79,40,33.31,39.56Zm0,6.61-2.94-3,2.92-3c.6.6,2.36,2.4,3,3Z"/><path class="cls-134" d="M41.64,39.56l-3.52,3.61c.48.48,3.08,3.13,3.55,3.62.46-.49,3-3.14,3.52-3.62Zm0,6.61-2.94-3,2.93-3,2.94,3Z"/><path class="cls-135" d="M50,39.56c-.48.48-3.06,3.13-3.52,3.61L50,46.79c.46-.49,3-3.14,3.52-3.62Zm0,6.61c-.59-.6-2.35-2.4-3-3l2.93-3,2.94,3Z"/><path class="cls-136" d="M58.31,39.56l-3.52,3.61c.48.48,3.07,3.13,3.54,3.62l3.52-3.62Zm0,6.61c-.58-.6-2.35-2.4-3-3l2.93-3c.6.6,2.36,2.4,3,3Z"/><path class="cls-137" d="M66.64,39.56l-3.52,3.61c.48.48,3.08,3.13,3.55,3.62.46-.49,3-3.14,3.52-3.62Zm0,6.61-2.94-3,2.92-3c.6.6,2.36,2.4,3,3Z"/><path class="cls-138" d="M75,39.56c-.48.48-3.06,3.13-3.52,3.61L75,46.79c.46-.49,3-3.14,3.52-3.62Zm0,6.61-3-3,2.93-3,2.94,3Z"/><path class="cls-139" d="M83.31,39.56c-.48.48-3.06,3.13-3.52,3.61.48.48,3.07,3.13,3.54,3.62l3.52-3.62Zm0,6.61c-.58-.6-2.35-2.4-3-3l2.93-3,3,3Z"/><path class="cls-140" d="M91.64,39.56l-3.52,3.61c.48.48,3.08,3.13,3.54,3.62l3.52-3.62C94.72,42.69,92.12,40,91.64,39.56Zm0,6.61-2.94-3,2.92-3c.6.6,2.36,2.4,3,3Z"/><path class="cls-141" d="M100,39.56c-.48.48-3.06,3.13-3.53,3.61.48.48,3.08,3.13,3.55,3.62.46-.49,3-3.14,3.52-3.62Zm0,6.61-3-3,2.93-3,2.94,3Z"/><path class="cls-142" d="M4.07,43.83.55,47.45c.48.48,3.08,3.13,3.54,3.61l3.52-3.61C7.15,47,4.55,44.31,4.07,43.83Zm0,6.62-2.94-3,2.92-3c.6.6,2.36,2.4,3,3Z"/><path class="cls-143" d="M12.4,43.83,8.88,47.45l3.55,3.61c.46-.48,3-3.13,3.52-3.61C15.48,47,12.88,44.31,12.4,43.83Zm0,6.62-3-3,2.93-3,2.94,3Z"/><path class="cls-144" d="M20.74,43.83c-.48.48-3.06,3.13-3.52,3.62l3.54,3.61,3.52-3.61C23.81,47,21.22,44.31,20.74,43.83Zm0,6.62-3-3,2.93-3,2.94,3Z"/><path class="cls-145" d="M29.07,43.83l-3.52,3.62c.48.48,3.08,3.13,3.54,3.61l3.52-3.61C32.15,47,29.55,44.31,29.07,43.83Zm0,6.62-2.94-3,2.92-3c.6.6,2.36,2.4,3,3Z"/><path class="cls-146" d="M37.4,43.83l-3.52,3.62,3.55,3.61c.46-.48,3-3.13,3.52-3.61C40.48,47,37.88,44.31,37.4,43.83Zm0,6.62-3-3,2.93-3,2.94,3Z"/><path class="cls-147" d="M45.74,43.83c-.48.48-3.06,3.13-3.52,3.62l3.54,3.61,3.52-3.61Zm0,6.62-3-3,2.93-3,2.94,3Z"/><path class="cls-148" d="M54.07,43.83c-.47.48-3.06,3.13-3.52,3.62l3.54,3.61,3.52-3.61C57.14,47,54.55,44.31,54.07,43.83Zm0,6.62-2.94-3,2.92-3c.6.6,2.36,2.4,3,3Z"/><path class="cls-149" d="M62.4,43.83l-3.52,3.62,3.55,3.61c.46-.48,3-3.13,3.52-3.61C65.48,47,62.88,44.31,62.4,43.83Zm0,6.62-2.94-3,2.93-3,2.94,3Z"/><path class="cls-150" d="M70.74,43.83c-.48.48-3.06,3.13-3.52,3.62l3.54,3.61c.46-.48,3-3.13,3.52-3.61Zm0,6.62-3-3,2.93-3,2.94,3Z"/><path class="cls-151" d="M79.07,43.83c-.47.48-3.06,3.13-3.52,3.62l3.54,3.61,3.52-3.61C82.14,47,79.55,44.31,79.07,43.83Zm0,6.62-3-3,2.93-3,3,3Z"/><path class="cls-152" d="M87.4,43.83l-3.52,3.62c.48.48,3.08,3.13,3.54,3.61l3.52-3.61C90.48,47,87.88,44.31,87.4,43.83Zm0,6.62-2.94-3,2.92-3c.6.6,2.36,2.4,3,3Z"/><path class="cls-153" d="M95.74,43.83c-.48.48-3.06,3.13-3.53,3.62l3.55,3.61c.46-.48,3-3.13,3.52-3.61Zm0,6.62-3-3,2.93-3,2.94,3Z"/><path class="cls-154" d="M0,48.19c-.48.48-3.06,3.13-3.52,3.61L0,55.42,3.52,51.8Zm0,6.62c-.58-.6-2.35-2.41-2.95-3l3-3,3,3C2.33,52.4.58,54.21,0,54.81Z"/><path class="cls-155" d="M8.31,48.19,4.79,51.8c.48.48,3.08,3.14,3.54,3.62l3.52-3.62C11.39,51.32,8.79,48.67,8.31,48.19Zm0,6.62-2.94-3,2.92-3c.6.6,2.36,2.4,3,3Z"/><path class="cls-156" d="M16.64,48.19,13.12,51.8l3.55,3.62c.46-.48,3-3.14,3.52-3.62Zm0,6.62-3-3,2.93-3,2.94,3Z"/><path class="cls-157" d="M25,48.19c-.48.48-3.06,3.13-3.52,3.61L25,55.42l3.52-3.62Zm0,6.62c-.59-.6-2.35-2.41-2.95-3l2.93-3,2.94,3Z"/><path class="cls-158" d="M33.31,48.19,29.79,51.8c.48.48,3.08,3.14,3.54,3.62l3.52-3.62C36.39,51.32,33.79,48.67,33.31,48.19Zm0,6.62-2.94-3,2.92-3c.6.6,2.36,2.4,3,3Z"/><path class="cls-159" d="M41.64,48.19,38.12,51.8l3.55,3.62c.46-.48,3-3.14,3.52-3.62Zm0,6.62-2.94-3,2.93-3,2.94,3Z"/><path class="cls-160" d="M50,48.19c-.48.48-3.06,3.13-3.52,3.61L50,55.42l3.52-3.62Zm0,6.62c-.59-.6-2.35-2.41-3-3l2.93-3,2.94,3Z"/><path class="cls-161" d="M58.31,48.19,54.79,51.8c.48.48,3.07,3.14,3.54,3.62l3.52-3.62Zm0,6.62c-.58-.6-2.35-2.41-3-3l2.93-3c.6.6,2.36,2.4,3,3Z"/><path class="cls-162" d="M66.64,48.19,63.12,51.8l3.55,3.62c.46-.48,3-3.14,3.52-3.62Zm0,6.62-2.94-3,2.92-3c.6.6,2.36,2.4,3,3Z"/><path class="cls-163" d="M75,48.19c-.48.48-3.06,3.13-3.52,3.61L75,55.42c.46-.48,3-3.14,3.52-3.62Zm0,6.62-3-3,2.93-3,2.94,3Z"/><path class="cls-164" d="M83.31,48.19c-.48.48-3.06,3.13-3.52,3.61.48.48,3.07,3.14,3.54,3.62l3.52-3.62Zm0,6.62c-.58-.6-2.35-2.41-3-3l2.93-3,3,3Z"/><path class="cls-165" d="M91.64,48.19,88.12,51.8c.48.48,3.08,3.14,3.54,3.62l3.52-3.62C94.72,51.32,92.12,48.67,91.64,48.19Zm0,6.62-2.94-3,2.92-3c.6.6,2.36,2.4,3,3Z"/><path class="cls-166" d="M100,48.19c-.48.48-3.06,3.13-3.53,3.61L100,55.42c.46-.48,3-3.14,3.52-3.62Zm0,6.62-3-3,2.93-3,2.94,3Z"/><path class="cls-167" d="M4.07,52.47.55,56.08c.48.48,3.08,3.13,3.54,3.62l3.52-3.62C7.15,55.6,4.55,53,4.07,52.47Zm0,6.61-2.94-3,2.92-3c.6.6,2.36,2.41,3,3Z"/><path class="cls-168" d="M12.4,52.47,8.88,56.08c.48.48,3.08,3.13,3.55,3.62.46-.49,3-3.14,3.52-3.62Zm0,6.61-3-3,2.93-3,2.94,3Z"/><path class="cls-169" d="M20.74,52.47c-.48.48-3.06,3.13-3.52,3.61l3.54,3.62c.46-.49,3-3.14,3.52-3.62Zm0,6.61c-.58-.6-2.35-2.4-3-3l2.93-3,2.94,3Z"/><path class="cls-170" d="M29.07,52.47l-3.52,3.61c.48.48,3.08,3.13,3.54,3.62l3.52-3.62C32.15,55.6,29.55,53,29.07,52.47Zm0,6.61-2.94-3,2.92-3c.6.6,2.36,2.41,3,3Z"/><path class="cls-171" d="M37.4,52.47l-3.52,3.61c.48.48,3.08,3.13,3.55,3.62.46-.49,3-3.14,3.52-3.62Zm0,6.61-3-3,2.93-3,2.94,3Z"/><path class="cls-172" d="M45.74,52.47c-.48.48-3.06,3.13-3.52,3.61l3.54,3.62c.46-.49,3.05-3.14,3.52-3.62Zm0,6.61c-.59-.6-2.35-2.4-3-3l2.93-3,2.94,3Z"/><path class="cls-173" d="M54.07,52.47l-3.52,3.61c.48.48,3.07,3.13,3.54,3.62l3.52-3.62Zm0,6.61-2.94-3,2.92-3c.6.6,2.36,2.41,3,3Z"/><path class="cls-174" d="M62.4,52.47l-3.52,3.61c.48.48,3.08,3.13,3.55,3.62.46-.49,3-3.14,3.52-3.62Zm0,6.61-2.94-3,2.93-3,2.94,3Z"/><path class="cls-175" d="M70.74,52.47c-.48.48-3.06,3.13-3.52,3.61l3.54,3.62c.46-.49,3-3.14,3.52-3.62Zm0,6.61c-.59-.6-2.35-2.4-3-3l2.93-3,2.94,3Z"/><path class="cls-176" d="M79.07,52.47l-3.52,3.61c.48.48,3.07,3.13,3.54,3.62l3.52-3.62Zm0,6.61c-.58-.6-2.35-2.4-3-3l2.93-3,3,3Z"/><path class="cls-177" d="M87.4,52.47l-3.52,3.61c.48.48,3.08,3.13,3.54,3.62l3.52-3.62C90.48,55.6,87.88,53,87.4,52.47Zm0,6.61-2.94-3,2.92-3c.6.6,2.36,2.41,3,3Z"/><path class="cls-178" d="M95.74,52.47c-.48.48-3.06,3.13-3.53,3.61.48.48,3.08,3.13,3.55,3.62.46-.49,3-3.14,3.52-3.62Zm0,6.61-3-3,2.93-3,2.94,3Z"/><path class="cls-179" d="M0,56.82c-.5.48-3.08,3.18-3.54,3.61L0,64.05l3.52-3.62Zm0,6.62-2.95-3,2.93-3,3,3Z"/><path class="cls-180" d="M8.31,56.82,4.79,60.43l3.54,3.62,3.52-3.62C11.39,60,8.79,57.3,8.31,56.82Zm0,6.62-2.94-3,2.92-3c.6.6,2.36,2.4,3,3Z"/><path class="cls-181" d="M16.64,56.82l-3.52,3.61,3.55,3.62,3.52-3.62Zm0,6.62-3-3,2.93-3,2.94,3Z"/><path class="cls-182" d="M25,56.82c-.48.48-3.06,3.13-3.52,3.61L25,64.05l3.52-3.62Zm0,6.62-2.95-3,2.93-3,2.94,3Z"/><path class="cls-183" d="M33.31,56.82l-3.52,3.61,3.54,3.62,3.52-3.62C36.39,60,33.79,57.3,33.31,56.82Zm0,6.62-2.94-3,2.92-3c.6.6,2.36,2.4,3,3Z"/><path class="cls-184" d="M41.64,56.82l-3.52,3.61,3.55,3.62,3.52-3.62Zm0,6.62-2.94-3,2.93-3,2.94,3Z"/><path class="cls-185" d="M50,56.82c-.48.48-3.06,3.13-3.52,3.61L50,64.05l3.52-3.62Zm0,6.62-3-3,2.93-3,2.94,3Z"/><path class="cls-186" d="M58.31,56.82l-3.52,3.61,3.54,3.62,3.52-3.62Zm0,6.62-3-3,2.93-3c.6.6,2.36,2.4,3,3Z"/><path class="cls-187" d="M66.64,56.82l-3.52,3.61,3.55,3.62,3.52-3.62Zm0,6.62-2.94-3,2.92-3c.6.6,2.36,2.4,3,3Z"/><path class="cls-188" d="M75,56.82c-.48.48-3.06,3.13-3.52,3.61L75,64.05l3.52-3.62Zm0,6.62-3-3,2.93-3,2.94,3Z"/><path class="cls-189" d="M83.31,56.82c-.48.48-3.06,3.13-3.52,3.61l3.54,3.62,3.52-3.62Zm0,6.62-3-3,2.93-3,3,3Z"/><path class="cls-190" d="M91.64,56.82l-3.52,3.61,3.54,3.62,3.52-3.62C94.72,60,92.12,57.3,91.64,56.82Zm0,6.62-2.94-3,2.92-3c.6.6,2.36,2.4,3,3Z"/><path class="cls-191" d="M100,56.82c-.48.48-3.06,3.13-3.53,3.61L100,64.05l3.52-3.62Zm0,6.62-3-3,2.93-3,2.94,3Z"/><path class="cls-192" d="M4.07,61.1.55,64.71c.48.48,3.08,3.14,3.54,3.62l3.52-3.62C7.15,64.23,4.55,61.58,4.07,61.1Zm0,6.62-2.94-3,2.92-3c.6.6,2.36,2.4,3,3Z"/><path class="cls-193" d="M12.4,61.1,8.88,64.71l3.55,3.62c.46-.48,3-3.14,3.52-3.62Zm0,6.62-3-3,2.93-3,2.94,3Z"/><path class="cls-194" d="M20.74,61.1c-.48.48-3.06,3.13-3.52,3.61l3.54,3.62,3.52-3.62Zm0,6.62c-.58-.6-2.35-2.41-3-3l2.93-3,2.94,3Z"/><path class="cls-195" d="M29.07,61.1l-3.52,3.61c.48.48,3.08,3.14,3.54,3.62l3.52-3.62C32.15,64.23,29.55,61.58,29.07,61.1Zm0,6.62-2.94-3,2.92-3c.6.6,2.36,2.4,3,3Z"/><path class="cls-196" d="M37.4,61.1l-3.52,3.61,3.55,3.62c.46-.48,3-3.14,3.52-3.62Zm0,6.62-3-3,2.93-3,2.94,3Z"/><path class="cls-197" d="M45.74,61.1c-.48.48-3.06,3.13-3.52,3.61l3.54,3.62,3.52-3.62Zm0,6.62c-.59-.6-2.35-2.41-3-3l2.93-3,2.94,3Z"/><path class="cls-198" d="M54.07,61.1l-3.52,3.61c.48.48,3.07,3.14,3.54,3.62l3.52-3.62Zm0,6.62-2.94-3,2.92-3c.6.6,2.36,2.4,3,3Z"/><path class="cls-199" d="M62.4,61.1l-3.52,3.61,3.55,3.62c.46-.48,3-3.14,3.52-3.62Zm0,6.62-2.94-3,2.93-3,2.94,3Z"/><path class="cls-200" d="M70.74,61.1c-.48.48-3.06,3.13-3.52,3.61l3.54,3.62c.46-.48,3-3.14,3.52-3.62Zm0,6.62c-.59-.6-2.35-2.41-3-3l2.93-3,2.94,3Z"/><path class="cls-201" d="M79.07,61.1l-3.52,3.61c.48.48,3.07,3.14,3.54,3.62l3.52-3.62Zm0,6.62c-.58-.6-2.35-2.41-3-3l2.93-3,3,3Z"/><path class="cls-202" d="M87.4,61.1l-3.52,3.61c.48.48,3.08,3.14,3.54,3.62l3.52-3.62C90.48,64.23,87.88,61.58,87.4,61.1Zm0,6.62-2.94-3,2.92-3c.6.6,2.36,2.4,3,3Z"/><path class="cls-203" d="M95.74,61.1c-.48.48-3.06,3.13-3.53,3.61l3.55,3.62c.46-.48,3-3.14,3.52-3.62Zm0,6.62-3-3,2.93-3,2.94,3Z"/><path class="cls-204" d="M0,65.45c-.48.49-3.06,3.13-3.52,3.62L0,72.68l3.52-3.61Zm0,6.62c-.58-.6-2.35-2.4-2.95-3l2.93-3,3,3C2.33,69.67.58,71.47,0,72.07Z"/><path class="cls-205" d="M8.31,65.45,4.79,69.07c.48.48,3.08,3.13,3.54,3.61l3.52-3.61C11.39,68.58,8.79,65.94,8.31,65.45Zm0,6.62-2.94-3,2.92-3c.6.6,2.36,2.41,3,3Z"/><path class="cls-206" d="M16.64,65.45l-3.52,3.62,3.55,3.61c.46-.48,3-3.13,3.52-3.61C19.72,68.58,17.12,65.94,16.64,65.45Zm0,6.62-3-3,2.93-3,2.94,3Z"/><path class="cls-207" d="M25,65.45c-.48.49-3.06,3.13-3.52,3.62L25,72.68l3.52-3.61Zm0,6.62c-.59-.6-2.35-2.4-2.95-3l2.93-3,2.94,3Z"/><path class="cls-208" d="M33.31,65.45c-.47.49-3.06,3.13-3.52,3.62.48.48,3.08,3.13,3.54,3.61l3.52-3.61C36.39,68.58,33.79,65.94,33.31,65.45Zm0,6.62-2.94-3,2.92-3c.6.6,2.36,2.41,3,3Z"/><path class="cls-209" d="M41.64,65.45l-3.52,3.62,3.55,3.61c.46-.48,3-3.13,3.52-3.61C44.72,68.58,42.12,65.94,41.64,65.45Zm0,6.62-2.94-3,2.93-3,2.94,3Z"/><path class="cls-210" d="M50,65.45c-.48.49-3.06,3.13-3.52,3.62L50,72.68l3.52-3.61Zm0,6.62c-.59-.6-2.35-2.4-3-3l2.93-3,2.94,3Z"/><path class="cls-211" d="M58.31,65.45c-.47.49-3.06,3.13-3.52,3.62l3.54,3.61,3.52-3.61Zm0,6.62c-.58-.6-2.35-2.4-3-3l2.93-3c.6.6,2.36,2.41,3,3Z"/><path class="cls-212" d="M66.64,65.45l-3.52,3.62,3.55,3.61c.46-.48,3-3.13,3.52-3.61C69.72,68.58,67.12,65.94,66.64,65.45Zm0,6.62-2.94-3,2.92-3c.6.6,2.36,2.41,3,3Z"/><path class="cls-213" d="M75,65.45c-.48.49-3.06,3.13-3.52,3.62L75,72.68c.46-.48,3-3.13,3.52-3.61Zm0,6.62-3-3,2.93-3,2.94,3Z"/><path class="cls-214" d="M83.31,65.45c-.48.49-3.06,3.13-3.52,3.62l3.54,3.61,3.52-3.61Zm0,6.62c-.58-.6-2.35-2.4-3-3l2.93-3,3,3Z"/><path class="cls-215" d="M91.64,65.45l-3.52,3.62c.48.48,3.08,3.13,3.54,3.61l3.52-3.61C94.72,68.58,92.12,65.94,91.64,65.45Zm0,6.62-2.94-3,2.92-3c.6.6,2.36,2.41,3,3Z"/><path class="cls-216" d="M100,65.45l-3.53,3.62L100,72.68c.46-.48,3-3.13,3.52-3.61Zm0,6.62-3-3,2.93-3,2.94,3Z"/><path class="cls-217" d="M4.07,69.73.55,73.34,4.09,77l3.52-3.62C7.15,72.86,4.55,70.21,4.07,69.73Zm0,6.62-2.94-3,2.92-3c.6.6,2.36,2.4,3,3Z"/><path class="cls-218" d="M12.4,69.73,8.88,73.34,12.43,77,16,73.34Zm0,6.62-3-3,2.93-3,2.94,3Z"/><path class="cls-219" d="M20.74,69.73c-.48.48-3.06,3.13-3.52,3.61L20.76,77l3.52-3.62Zm0,6.62c-.58-.6-2.35-2.41-3-3l2.93-3,2.94,3Z"/><path class="cls-220" d="M29.07,69.73l-3.52,3.61L29.09,77l3.52-3.62C32.15,72.86,29.55,70.21,29.07,69.73Zm0,6.62-2.94-3,2.92-3c.6.6,2.36,2.4,3,3Z"/><path class="cls-221" d="M37.4,69.73l-3.52,3.61L37.43,77,41,73.34Zm0,6.62-3-3,2.93-3,2.94,3Z"/><path class="cls-222" d="M45.74,69.73c-.48.48-3.06,3.13-3.52,3.61L45.76,77l3.52-3.62Zm0,6.62c-.59-.6-2.35-2.41-3-3l2.93-3,2.94,3Z"/><path class="cls-223" d="M54.07,69.73l-3.52,3.61L54.09,77l3.52-3.62Zm0,6.62-2.94-3,2.92-3c.6.6,2.36,2.4,3,3Z"/><path class="cls-224" d="M62.4,69.73l-3.52,3.61L62.43,77,66,73.34Zm0,6.62-2.94-3,2.93-3,2.94,3Z"/><path class="cls-225" d="M70.74,69.73c-.48.48-3.06,3.13-3.52,3.61L70.76,77l3.52-3.62Zm0,6.62c-.59-.6-2.35-2.41-3-3l2.93-3,2.94,3Z"/><path class="cls-226" d="M79.07,69.73l-3.52,3.61L79.09,77l3.52-3.62Zm0,6.62c-.58-.6-2.35-2.41-3-3l2.93-3,3,3Z"/><path class="cls-227" d="M87.4,69.73l-3.52,3.61L87.42,77l3.52-3.62C90.48,72.86,87.88,70.21,87.4,69.73Zm0,6.62-2.94-3,2.92-3c.6.6,2.36,2.4,3,3Z"/><path class="cls-228" d="M95.74,69.73c-.48.48-3.06,3.13-3.53,3.61L95.76,77l3.52-3.62Zm0,6.62-3-3,2.93-3,2.94,3Z"/><path class="cls-229" d="M0,74.09c-.48.48-3.06,3.13-3.52,3.61L0,81.32,3.52,77.7Zm0,6.62c-.58-.61-2.35-2.41-2.95-3l3-3,3,3C2.33,78.3.58,80.1,0,80.71Z"/><path class="cls-230" d="M8.31,74.09,4.79,77.7c.48.48,3.08,3.13,3.54,3.62l3.52-3.62C11.39,77.22,8.79,74.57,8.31,74.09Zm0,6.62c-.58-.61-2.35-2.41-2.94-3l2.92-3c.6.6,2.36,2.4,3,3-.57.59-2.33,2.39-2.91,3Z"/><path class="cls-231" d="M16.64,74.09,13.12,77.7c.48.48,3.08,3.13,3.55,3.62.46-.49,3-3.14,3.52-3.62Zm0,6.62-3-3,2.93-3,2.94,3c-.51.59-2.26,2.39-2.84,3Z"/><path class="cls-232" d="M25,74.09c-.48.48-3.06,3.13-3.52,3.61L25,81.32c.46-.49,3.05-3.14,3.52-3.62Zm0,6.62c-.59-.61-2.35-2.41-2.95-3l2.93-3,2.94,3C27.33,78.3,25.58,80.1,25,80.71Z"/><path class="cls-233" d="M33.31,74.09,29.79,77.7c.48.48,3.08,3.13,3.54,3.62l3.52-3.62C36.39,77.22,33.79,74.57,33.31,74.09Zm0,6.62c-.58-.61-2.35-2.41-2.94-3l2.92-3c.6.6,2.36,2.4,3,3-.57.59-2.33,2.39-2.91,3Z"/><path class="cls-234" d="M41.64,74.09,38.12,77.7c.48.48,3.08,3.13,3.55,3.62.46-.49,3-3.14,3.52-3.62Zm0,6.62c-.58-.61-2.35-2.41-2.94-3l2.93-3,2.94,3c-.57.59-2.33,2.39-2.91,3Z"/><path class="cls-235" d="M50,74.09c-.48.48-3.06,3.13-3.52,3.61L50,81.32c.46-.49,3-3.14,3.52-3.62Zm0,6.62c-.59-.61-2.35-2.41-3-3l2.93-3,2.94,3C52.33,78.3,50.58,80.1,50,80.71Z"/><path class="cls-236" d="M58.31,74.09,54.79,77.7c.48.48,3.07,3.13,3.54,3.62l3.52-3.62Zm0,6.62c-.58-.61-2.35-2.41-3-3l2.93-3c.6.6,2.36,2.4,3,3-.57.59-2.33,2.39-2.91,3Z"/><path class="cls-237" d="M66.64,74.09,63.12,77.7c.48.48,3.08,3.13,3.55,3.62.46-.49,3-3.14,3.52-3.62Zm0,6.62c-.58-.61-2.35-2.41-2.94-3l2.92-3c.6.6,2.36,2.4,3,3-.62.59-2.38,2.39-3,3Z"/><path class="cls-238" d="M75,74.09c-.48.48-3.06,3.13-3.52,3.61L75,81.32c.46-.49,3-3.14,3.52-3.62Zm0,6.62-3-3,2.93-3,2.94,3C77.33,78.3,75.58,80.1,75,80.71Z"/><path class="cls-239" d="M83.31,74.09c-.48.48-3.06,3.13-3.52,3.61.48.48,3.07,3.13,3.54,3.62l3.52-3.62Zm0,6.62c-.58-.61-2.35-2.41-3-3l2.93-3,3,3c-.57.59-2.33,2.39-2.91,3Z"/><path class="cls-240" d="M91.64,74.09,88.12,77.7c.48.48,3.08,3.13,3.54,3.62l3.52-3.62C94.72,77.22,92.12,74.57,91.64,74.09Zm0,6.62c-.58-.61-2.35-2.41-2.94-3l2.92-3c.6.6,2.36,2.4,3,3-.62.59-2.38,2.39-3,3Z"/><path class="cls-241" d="M100,74.09c-.48.48-3.06,3.13-3.53,3.61.48.48,3.08,3.13,3.55,3.62.46-.49,3-3.14,3.52-3.62Zm0,6.62-3-3,2.93-3,2.94,3C102.33,78.3,100.58,80.1,100,80.71Z"/><path class="cls-242" d="M4.07,78.36.55,82c.48.48,3.08,3.13,3.54,3.61L7.61,82C7.15,81.49,4.55,78.85,4.07,78.36Zm0,6.62L1.15,82l2.92-3c.6.6,2.36,2.41,2.95,3Z"/><path class="cls-243" d="M12.4,78.36,8.88,82l3.55,3.61c.46-.48,3-3.13,3.52-3.61C15.48,81.49,12.88,78.85,12.4,78.36Zm0,6.62L9.48,82l2.93-3,2.94,3Z"/><path class="cls-244" d="M20.74,78.36c-.48.49-3.06,3.13-3.52,3.62l3.54,3.61L24.28,82Zm0,6.62c-.58-.6-2.35-2.4-3-3l2.93-3,2.94,3Z"/><path class="cls-245" d="M29.07,78.36,25.55,82c.48.48,3.08,3.13,3.54,3.61L32.61,82C32.15,81.49,29.55,78.85,29.07,78.36Zm0,6.62-2.94-3,2.92-3c.6.6,2.36,2.41,3,3Z"/><path class="cls-246" d="M37.4,78.36,33.88,82l3.55,3.61c.46-.48,3-3.13,3.52-3.61C40.48,81.49,37.88,78.85,37.4,78.36Zm0,6.62-3-3,2.93-3,2.94,3Z"/><path class="cls-247" d="M45.74,78.36c-.48.49-3.06,3.13-3.52,3.62l3.54,3.61L49.28,82Zm0,6.62c-.59-.6-2.35-2.4-3-3l2.93-3,2.94,3Z"/><path class="cls-248" d="M54.07,78.36c-.47.49-3.06,3.13-3.52,3.62l3.54,3.61L57.61,82Zm0,6.62-2.94-3,2.92-3c.6.6,2.36,2.41,3,3Z"/><path class="cls-249" d="M62.4,78.36,58.88,82l3.55,3.61c.46-.48,3-3.13,3.52-3.61C65.48,81.49,62.88,78.85,62.4,78.36Zm0,6.62-2.94-3,2.93-3,2.94,3Z"/><path class="cls-250" d="M70.74,78.36c-.48.49-3.06,3.13-3.52,3.62l3.54,3.61c.46-.48,3-3.13,3.52-3.61Zm0,6.62c-.59-.6-2.35-2.4-3-3l2.93-3,2.94,3Z"/><path class="cls-251" d="M79.07,78.36c-.47.49-3.06,3.13-3.52,3.62l3.54,3.61L82.61,82Zm0,6.62c-.58-.6-2.35-2.4-3-3L79,79l3,3Z"/><path class="cls-252" d="M87.4,78.36,83.88,82c.48.48,3.08,3.13,3.54,3.61L90.94,82C90.48,81.49,87.88,78.85,87.4,78.36Zm0,6.62-2.94-3,2.92-3c.6.6,2.36,2.41,3,3Z"/><path class="cls-253" d="M95.74,78.36,92.21,82l3.55,3.61c.46-.48,3-3.13,3.52-3.61Zm0,6.62-3-3,2.93-3,2.94,3Z"/><path class="cls-254" d="M0,82.72c-.48.48-3.06,3.13-3.52,3.61L0,90l3.52-3.62Zm0,6.62c-.58-.6-2.35-2.41-2.95-3l2.93-3,3,3C2.33,86.93.58,88.74,0,89.34Z"/><path class="cls-255" d="M8.31,82.72,4.79,86.33,8.33,90l3.52-3.62C11.39,85.85,8.79,83.2,8.31,82.72Zm0,6.62-2.94-3,2.92-3c.6.6,2.36,2.4,3,3Z"/><path class="cls-256" d="M16.64,82.72l-3.52,3.61L16.67,90l3.52-3.62Zm0,6.62-3-3,2.93-3,2.94,3Z"/><path class="cls-257" d="M25,82.72c-.48.48-3.06,3.13-3.52,3.61L25,90l3.52-3.62Zm0,6.62c-.59-.6-2.35-2.41-2.95-3l2.93-3,2.94,3Z"/><path class="cls-258" d="M33.31,82.72l-3.52,3.61L33.33,90l3.52-3.62C36.39,85.85,33.79,83.2,33.31,82.72Zm0,6.62-2.94-3,2.92-3c.6.6,2.36,2.4,3,3Z"/><path class="cls-259" d="M41.64,82.72l-3.52,3.61L41.67,90l3.52-3.62Zm0,6.62-2.94-3,2.93-3,2.94,3Z"/><path class="cls-260" d="M50,82.72c-.48.48-3.06,3.13-3.52,3.61L50,90l3.52-3.62Zm0,6.62c-.59-.6-2.35-2.41-3-3l2.93-3,2.94,3Z"/><path class="cls-261" d="M58.31,82.72l-3.52,3.61L58.33,90l3.52-3.62Zm0,6.62c-.58-.6-2.35-2.41-3-3l2.93-3c.6.6,2.36,2.4,3,3Z"/><path class="cls-262" d="M66.64,82.72l-3.52,3.61L66.67,90l3.52-3.62Zm0,6.62-2.94-3,2.92-3c.6.6,2.36,2.4,3,3Z"/><path class="cls-263" d="M75,82.72c-.48.48-3.06,3.13-3.52,3.61L75,90l3.52-3.62Zm0,6.62-3-3,2.93-3,2.94,3Z"/><path class="cls-264" d="M83.31,82.72c-.48.48-3.06,3.13-3.52,3.61L83.33,90l3.52-3.62Zm0,6.62c-.58-.6-2.35-2.41-3-3l2.93-3,3,3Z"/><path class="cls-265" d="M91.64,82.72l-3.52,3.61L91.66,90l3.52-3.62C94.72,85.85,92.12,83.2,91.64,82.72Zm0,6.62-2.94-3,2.92-3c.6.6,2.36,2.4,3,3Z"/><path class="cls-266" d="M100,82.72c-.48.48-3.06,3.13-3.53,3.61L100,90l3.52-3.62Zm0,6.62-3-3,2.93-3,2.94,3Z"/><path class="cls-267" d="M4.07,87,.55,90.61c.48.48,3.08,3.13,3.54,3.62l3.52-3.62C7.15,90.13,4.55,87.48,4.07,87Zm0,6.62c-.58-.61-2.35-2.41-2.94-3l2.92-3c.6.6,2.36,2.4,3,3-.57.59-2.33,2.38-2.91,3Z"/><path class="cls-268" d="M12.4,87,8.88,90.61c.48.48,3.08,3.13,3.55,3.62.46-.49,3-3.14,3.52-3.62Zm0,6.62-3-3,2.93-3,2.94,3c-.56.59-2.32,2.38-2.89,3Z"/><path class="cls-269" d="M20.74,87c-.48.48-3.06,3.13-3.52,3.61l3.54,3.62c.46-.49,3-3.14,3.52-3.62Zm0,6.62c-.58-.61-2.35-2.41-3-3l2.93-3,2.94,3c-.52.59-2.27,2.38-2.85,3Z"/><path class="cls-270" d="M29.07,87l-3.52,3.61c.48.48,3.08,3.13,3.54,3.62l3.52-3.62C32.15,90.13,29.55,87.48,29.07,87Zm0,6.62c-.58-.61-2.35-2.41-2.94-3l2.92-3c.6.6,2.36,2.4,3,3-.62.59-2.38,2.38-3,3Z"/><path class="cls-271" d="M37.4,87l-3.52,3.61c.48.48,3.08,3.13,3.55,3.62.46-.49,3-3.14,3.52-3.62Zm0,6.62-3-3,2.93-3,2.94,3c-.51.59-2.27,2.38-2.84,3Z"/><path class="cls-272" d="M45.74,87c-.48.48-3.06,3.13-3.52,3.61l3.54,3.62c.46-.49,3.05-3.14,3.52-3.62Zm0,6.62c-.59-.61-2.35-2.41-3-3l2.93-3,2.94,3c-.57.59-2.32,2.38-2.9,3Z"/><path class="cls-273" d="M54.07,87l-3.52,3.61c.48.48,3.07,3.13,3.54,3.62l3.52-3.62Zm0,6.62c-.58-.61-2.35-2.41-2.94-3l2.92-3c.6.6,2.36,2.4,3,3-.62.59-2.38,2.38-3,3Z"/><path class="cls-274" d="M62.4,87l-3.52,3.61c.48.48,3.08,3.13,3.55,3.62.46-.49,3-3.14,3.52-3.62Zm0,6.62c-.58-.61-2.35-2.41-2.94-3l2.93-3,2.94,3c-.57.59-2.33,2.38-2.91,3Z"/><path class="cls-275" d="M70.74,87c-.48.48-3.06,3.13-3.52,3.61l3.54,3.62c.46-.49,3-3.14,3.52-3.62Zm0,6.62c-.59-.61-2.35-2.41-3-3l2.93-3,2.94,3c-.52.59-2.27,2.38-2.85,3Z"/><path class="cls-276" d="M79.07,87l-3.52,3.61c.48.48,3.07,3.13,3.54,3.62l3.52-3.62Zm0,6.62c-.58-.61-2.35-2.41-3-3l2.93-3,3,3c-.57.59-2.33,2.38-2.91,3Z"/><path class="cls-277" d="M87.4,87l-3.52,3.61c.48.48,3.08,3.13,3.54,3.62l3.52-3.62C90.48,90.13,87.88,87.48,87.4,87Zm0,6.62c-.58-.61-2.35-2.41-2.94-3l2.92-3c.6.6,2.36,2.4,3,3-.57.59-2.33,2.38-2.91,3Z"/><path class="cls-278" d="M95.74,87c-.48.48-3.06,3.13-3.53,3.61.48.48,3.08,3.13,3.55,3.62.46-.49,3-3.14,3.52-3.62Zm0,6.62-3-3,2.93-3,2.94,3c-.52.59-2.27,2.38-2.85,3Z"/><path class="cls-279" d="M0,91.35c-.48.48-3.06,3.13-3.52,3.62L0,98.58,3.52,95C3.05,94.48.46,91.83,0,91.35ZM0,98c-.58-.6-2.35-2.4-2.95-3,.58-.61,2.34-2.41,2.93-3l3,3C2.33,95.57.58,97.37,0,98Z"/><path class="cls-280" d="M8.31,91.35,4.79,95c.48.48,3.08,3.13,3.54,3.61L11.85,95C11.39,94.48,8.79,91.83,8.31,91.35Zm0,6.62L5.39,95c.58-.61,2.33-2.41,2.92-3,.6.6,2.36,2.4,2.95,3Z"/><path class="cls-281" d="M16.64,91.35,13.12,95l3.55,3.61c.46-.48,3-3.13,3.52-3.61C19.72,94.48,17.12,91.83,16.64,91.35Zm0,6.62-3-3c.58-.61,2.34-2.41,2.93-3l2.94,3Z"/><path class="cls-282" d="M25,91.35c-.48.48-3.06,3.13-3.52,3.62L25,98.58,28.52,95ZM25,98c-.59-.6-2.35-2.4-2.95-3,.58-.61,2.34-2.41,2.93-3l2.94,3Z"/><path class="cls-283" d="M33.31,91.35c-.47.48-3.06,3.13-3.52,3.62.48.48,3.08,3.13,3.54,3.61L36.85,95C36.39,94.48,33.79,91.83,33.31,91.35Zm0,6.62-2.94-3c.58-.61,2.33-2.41,2.92-3,.6.6,2.36,2.4,3,3Z"/><path class="cls-284" d="M41.64,91.35,38.12,95l3.55,3.61c.46-.48,3-3.13,3.52-3.61C44.72,94.48,42.12,91.83,41.64,91.35Zm0,6.62L38.7,95c.58-.61,2.34-2.41,2.93-3l2.94,3Z"/><path class="cls-285" d="M50,91.35c-.48.48-3.06,3.13-3.52,3.62L50,98.58,53.52,95ZM50,98c-.59-.6-2.35-2.4-3-3,.58-.61,2.34-2.41,2.93-3l2.94,3Z"/><path class="cls-286" d="M58.31,91.35c-.47.48-3.06,3.13-3.52,3.62l3.54,3.61L61.85,95C61.38,94.48,58.79,91.83,58.31,91.35Zm0,6.62c-.58-.6-2.35-2.4-3-3l2.93-3c.6.6,2.36,2.4,3,3Z"/><path class="cls-287" d="M66.64,91.35,63.12,95l3.55,3.61c.46-.48,3-3.13,3.52-3.61C69.72,94.48,67.12,91.83,66.64,91.35Zm0,6.62L63.7,95c.58-.61,2.33-2.41,2.92-3,.6.6,2.36,2.4,3,3Z"/><path class="cls-288" d="M75,91.35c-.48.48-3.06,3.13-3.52,3.62L75,98.58c.46-.48,3-3.13,3.52-3.61ZM75,98l-3-3c.58-.61,2.34-2.41,2.93-3l2.94,3Z"/><path class="cls-289" d="M83.31,91.35c-.48.48-3.06,3.13-3.52,3.62l3.54,3.61L86.85,95C86.38,94.48,83.79,91.83,83.31,91.35Zm0,6.62c-.58-.6-2.35-2.4-3-3,.58-.61,2.34-2.41,2.93-3l3,3Z"/><path class="cls-290" d="M91.64,91.35,88.12,95c.48.48,3.08,3.13,3.54,3.61L95.18,95C94.72,94.48,92.12,91.83,91.64,91.35Zm0,6.62L88.7,95c.58-.61,2.33-2.41,2.92-3,.6.6,2.36,2.4,3,3Z"/><path class="cls-291" d="M100,91.35c-.48.48-3.06,3.13-3.53,3.62L100,98.58c.46-.48,3-3.13,3.52-3.61ZM100,98l-3-3c.58-.61,2.34-2.41,2.93-3l2.94,3Z"/></g></g></svg>